<?xml version="1.0" encoding="UTF-8"?>
<svg version="1.1" xmlns="http://www.w3.org/2000/svg" width="4096" height="3848">
<path d="M0 0 C1351.68 0 2703.36 0 4096 0 C4096 1269.84 4096 2539.68 4096 3848 C2744.32 3848 1392.64 3848 0 3848 C0 2578.16 0 1308.32 0 0 Z " fill="#FEFEFE" transform="translate(0,0)"/>
<path d="M0 0 C1.68665457 0.00035877 1.68665457 0.00035877 3.40738297 0.00072479 C77.23479788 0.02057266 150.56072889 5.03491905 223.5625 16.375 C224.56796875 16.5296875 225.5734375 16.684375 226.609375 16.84375 C242.66045861 19.31960342 258.69286237 21.88837567 274.45317078 25.85507202 C277.72473306 26.66147851 281.01374763 27.38726894 284.3046875 28.109375 C285.78532621 28.43640948 287.26595742 28.76347788 288.74658203 29.09057617 C289.51214417 29.25931244 290.2777063 29.42804871 291.06646729 29.60189819 C337.83294796 39.91960928 337.83294796 39.91960928 356.5625 45.375 C359.02049025 46.08452296 361.47880467 46.79292422 363.9375 47.5 C364.93523437 47.79132813 365.93296875 48.08265625 366.9609375 48.3828125 C370.06126385 49.23691542 373.16528504 50.01552661 376.2890625 50.77734375 C382.1294486 52.22908913 387.84142161 53.95032989 393.5625 55.8125 C394.6043042 56.14886475 395.6461084 56.48522949 396.71948242 56.83178711 C416.94666348 63.39041666 437.16163716 70.03166617 457.20361328 77.13818359 C460.71597477 78.38345423 464.23159421 79.60647629 467.7734375 80.765625 C468.44721436 80.98613525 469.12099121 81.20664551 469.81518555 81.43383789 C471.57704818 82.0063043 473.34114335 82.57188815 475.10546875 83.13671875 C478.55831343 84.37350041 481.84800894 85.8083788 485.1862793 87.32006836 C489.2014563 89.10262048 493.28948218 90.6993753 497.375 92.3125 C522.85132432 102.39393206 547.78092619 113.70234145 572.5625 125.375 C573.67254395 125.89771484 574.78258789 126.42042969 575.92626953 126.95898438 C594.5581846 135.75746538 612.72783308 145.2089997 630.75 155.1875 C631.89710449 155.82212158 633.04420898 156.45674316 634.22607422 157.1105957 C639.53489849 160.06589071 644.77649673 163.0711612 649.90112305 166.33569336 C652.16801658 167.75379266 654.50883602 169.00619996 656.875 170.25 C661.48366646 172.73981162 665.90035953 175.42435767 670.296875 178.26953125 C672.83942643 179.90880783 675.39072063 181.52894631 677.953125 183.13671875 C687.92920708 189.39644066 697.820848 195.75584871 707.5625 202.375 C708.12662598 202.7575293 708.69075195 203.14005859 709.27197266 203.53417969 C716.21055735 208.25105007 722.99116424 213.13870791 729.6796875 218.203125 C732.36933031 220.22946837 735.08280031 222.21559754 737.8125 224.1875 C748.97711535 232.28668628 759.95647296 240.55271387 770.5625 249.375 C772.41636452 250.87537341 774.27053454 252.37536941 776.125 253.875 C780.55573992 257.49500878 784.80667676 261.27197783 789.03125 265.12890625 C791.64389118 267.44722211 794.33408932 269.63207068 797.0625 271.8125 C801.76105958 275.6097844 805.99598119 279.70143468 810.2109375 284.0234375 C812.35807619 286.17057619 814.56276266 288.15916526 816.875 290.125 C819.21509245 292.12275428 821.26633338 294.097017 823.1875 296.5 C825.48937769 299.46858969 825.48937769 299.46858969 828.5 301.8125 C831.93983808 304.69073187 834.85365138 307.80162522 837.5625 311.375 C837.5625 311.705 837.5625 312.035 837.5625 312.375 C822.62880967 312.70292754 807.69539939 312.94934428 792.75886822 313.10037041 C785.8223105 313.17238077 778.88799708 313.27042643 771.95288086 313.43115234 C765.2546965 313.58631238 758.55931892 313.66706462 751.85926247 313.7032814 C749.3085551 313.72907398 746.75796975 313.77944708 744.20825768 313.85522079 C723.15887286 314.45567635 723.15887286 314.45567635 717.68496704 309.39141846 C715.22109537 306.54697412 713.38519983 303.50243323 711.63135719 300.185215 C709.78972832 297.066235 707.30709735 294.54165229 704.8125 291.9375 C704.12637493 291.20056758 704.12637493 291.20056758 703.42638874 290.44874763 C700.35833127 287.16155665 697.1976441 283.97644458 693.984375 280.83203125 C692.5625 279.375 692.5625 279.375 690.375 276.625 C688.65367009 274.29888221 688.65367009 274.29888221 686.3125 272.6875 C685.735 272.254375 685.1575 271.82125 684.5625 271.375 C684.5625 270.715 684.5625 270.055 684.5625 269.375 C683.70011719 269.00761719 683.70011719 269.00761719 682.8203125 268.6328125 C680.18131289 267.16264317 678.51024576 265.4451219 676.4375 263.25 C673.35162254 260.08861168 670.23416495 257.21551664 666.75 254.5 C662.86521692 251.47047149 659.17815757 248.28074502 655.5625 244.9375 C654.79993896 244.23306763 654.79993896 244.23306763 654.02197266 243.5144043 C651.68940945 241.35463737 649.36245862 239.18887186 647.03515625 237.0234375 C642.03956704 232.44077382 636.85552983 228.19973866 631.45385742 224.10961914 C627.87867516 221.40156179 624.38919903 218.61574727 620.9375 215.75 C616.53848828 212.12129279 612.0173615 208.73092284 607.3828125 205.41015625 C604.39039943 203.25081109 601.44394479 201.03739945 598.5 198.8125 C593.26705119 194.87769916 587.95053876 191.09339202 582.5625 187.375 C581.08523438 186.34439453 581.08523438 186.34439453 579.578125 185.29296875 C571.9530478 179.98331134 564.26393008 174.77771574 556.50732422 169.66210938 C554.60462914 168.4028816 552.71043174 167.13159207 550.81640625 165.859375 C533.66854629 154.44690303 515.5774007 144.02208897 497.0234375 135.07421875 C493.57472089 133.3810001 490.23400258 131.55147741 486.875 129.6875 C479.40488876 125.60654801 471.64075177 122.15855107 463.875 118.6875 C463.25775055 118.41136871 462.6405011 118.13523743 462.00454712 117.85073853 C451.74684831 113.27144825 441.44533986 108.79106206 430.9375 104.8125 C427.21094564 103.39411879 423.50148764 101.95061018 419.8125 100.4375 C414.53628336 98.30971427 409.17312595 96.439495 403.80175781 94.56860352 C399.70394684 93.14030299 395.63153831 91.6601877 391.57177734 90.12719727 C382.72965251 86.81704093 373.81992033 83.60563541 364.73828125 81.015625 C363.07614993 80.52623625 361.42679806 79.99323887 359.78442383 79.44116211 C328.14404196 68.97108955 295.48660067 62.07970432 262.80767822 55.80786133 C260.65179114 55.39221497 258.4974566 54.96923779 256.34326172 54.54492188 C247.32769875 52.78708965 238.30533493 51.47591505 229.1875 50.375 C221.00634023 49.36641059 212.8541866 48.33387086 204.75 46.8125 C194.33308222 44.88901437 183.72173958 44.23299997 173.17456055 43.37670898 C172.447771 43.3170546 171.72098145 43.25740021 170.97216797 43.19593811 C168.9702346 43.03279035 166.96791482 42.8744045 164.96557617 42.71630859 C161.5625 42.375 161.5625 42.375 159.1550293 41.86914062 C139.2141166 38.06836774 116.98496405 40.21506688 96.73680878 40.24582291 C93.9131829 40.25003629 91.08955784 40.25297557 88.26593018 40.25570679 C37.14435556 39.69166418 37.14435556 39.69166418 -13.734375 43.6875 C-19.65093292 44.46716995 -25.53908548 44.70190006 -31.5 44.875 C-38.85296454 45.09926666 -45.8157803 45.7721549 -53.02441406 47.21875 C-58.74513637 48.33950016 -64.44236203 48.90325227 -70.25 49.375 C-84.06900786 50.51748332 -97.66241218 52.58549688 -111.26416016 55.25854492 C-115.68128643 56.10507965 -120.09636575 56.74037235 -124.55883789 57.29638672 C-152.76957779 60.82305672 -180.76090121 67.20326616 -208.4140625 73.69921875 C-212.97134876 74.717837 -217.5578689 75.57890943 -222.1484375 76.43359375 C-226.54932206 77.33887076 -230.86882562 78.53914645 -235.20458984 79.71200562 C-240.27555366 81.07869258 -245.3621084 82.37040967 -250.4609375 83.62890625 C-251.22622772 83.81823227 -251.99151794 84.00755829 -252.77999878 84.20262146 C-255.91993757 84.97866359 -259.06025887 85.753091 -262.20166016 86.52319336 C-273.45594489 89.26370505 -273.45594489 89.26370505 -284.49853516 92.74243164 C-287.31213206 93.66034018 -290.17695091 94.23331535 -293.0703125 94.84277344 C-297.58170673 95.85709269 -302.00313266 97.19516875 -306.4375 98.5 C-307.98497925 98.95306519 -307.98497925 98.95306519 -309.5637207 99.4152832 C-319.39004839 102.31671415 -329.14356964 105.43403802 -338.890625 108.58984375 C-343.205034 109.98572457 -347.53091101 111.32483252 -351.875 112.625 C-356.24969133 113.95365294 -360.42094181 115.55338108 -364.640625 117.3046875 C-369.56672769 119.18981618 -374.62292656 120.6704045 -379.6640625 122.21484375 C-383.27745241 123.32579282 -386.86615041 124.48756052 -390.4453125 125.703125 C-391.81090724 126.16367852 -393.18103111 126.61095452 -394.5546875 127.046875 C-398.82613816 128.41495528 -402.93869665 129.98344435 -407.0625 131.75 C-412.81110285 134.19168973 -418.65740864 136.17031302 -424.6015625 138.06640625 C-428.33107811 139.29810974 -431.95628429 140.75091752 -435.59521484 142.22631836 C-438.78472331 143.51532689 -441.98494628 144.77500831 -445.1875 146.03125 C-446.3734375 146.49660156 -447.559375 146.96195313 -448.78125 147.44140625 C-451.21875 148.39713542 -453.65625 149.35286458 -456.09375 150.30859375 C-469.08787162 155.3963736 -469.08787162 155.3963736 -482 160.6875 C-485.55934669 162.17938658 -489.12353314 163.65717476 -492.69921875 165.109375 C-493.44163818 165.41190186 -494.18405762 165.71442871 -494.94897461 166.02612305 C-496.39797793 166.61605973 -497.84795186 167.20362033 -499.29907227 167.78833008 C-502.65923853 169.15923332 -505.92254982 170.59838463 -509.140625 172.27734375 C-512.47869019 173.98066181 -515.87111977 175.34204588 -519.37890625 176.66015625 C-527.51911323 179.73336829 -535.43540502 183.2608603 -543.375 186.8125 C-544.15518494 187.16026489 -544.93536987 187.50802979 -545.73919678 187.86633301 C-559.01870353 193.78668568 -572.21596273 199.87150339 -585.37109375 206.0625 C-590.03812032 208.25784262 -594.71661233 210.42444025 -599.41015625 212.5625 C-611.59038102 218.11298218 -623.5312705 223.9180138 -635.32177734 230.25195312 C-638.64494888 232.01592602 -642.00600635 233.70061015 -645.375 235.375 C-646.01824219 235.69533203 -646.66148437 236.01566406 -647.32421875 236.34570312 C-650.12015795 237.73538437 -652.91865127 239.11973752 -655.72021484 240.49804688 C-668.21096624 246.6449796 -680.47573115 253.12578862 -692.6640625 259.8515625 C-695.39433893 261.35129181 -698.1327942 262.83471186 -700.875 264.3125 C-713.52564614 271.1383882 -725.96957248 278.27479584 -738.35693359 285.56640625 C-741.51022635 287.41769748 -744.66998943 289.2574463 -747.83203125 291.09375 C-761.94603221 299.28588201 -761.94603221 299.28588201 -775.8515625 307.82421875 C-781.23432082 311.05224753 -785.01791304 312.75038956 -791.38510132 312.73576355 C-792.05993045 312.73832682 -792.73475959 312.7408901 -793.43003809 312.74353105 C-795.67805298 312.74844949 -797.92538745 312.73200905 -800.17333984 312.71557617 C-801.78996769 312.71472948 -803.4065967 312.71520587 -805.02322388 312.71690369 C-809.40299569 312.71776341 -813.78252034 312.70014142 -818.16223478 312.67918181 C-822.7426347 312.66041116 -827.32304046 312.65866426 -831.9034729 312.65510559 C-840.57315644 312.64578627 -849.24272631 312.62117401 -857.91235983 312.59105712 C-867.78412099 312.55750961 -877.65588762 312.54102622 -887.5276916 312.52597082 C-907.83102448 312.49462437 -928.13425507 312.44186604 -948.4375 312.375 C-946.84663353 308.94101921 -945.72056055 307.64308973 -942.375 305.8125 C-937.70721766 303.14234206 -933.18837101 300.31338975 -928.6875 297.375 C-910.12571399 285.31729363 -891.38270571 273.60429762 -872.42724609 262.17822266 C-870.02820399 260.73127467 -867.6319897 259.27995941 -865.23828125 257.82421875 C-835.21916624 239.61331479 -804.56810223 221.66160384 -773.04541016 206.1640625 C-768.7680762 204.05870129 -764.56264909 201.84122483 -760.375 199.5625 C-753.26497466 195.71479984 -745.98664922 192.25274471 -738.68139648 188.79370117 C-731.21690856 185.25044307 -723.81857415 181.58854814 -716.4375 177.875 C-692.19570525 165.72227996 -667.59007141 154.57745066 -642.78315735 143.63215637 C-638.30150571 141.65262405 -633.83528999 139.64758073 -629.390625 137.5859375 C-624.60638263 135.39612793 -619.72381687 133.51791009 -614.80371094 131.65673828 C-609.02449144 129.45620866 -603.29878947 127.12209509 -597.5625 124.8125 C-575.47877716 115.94847908 -553.31831312 107.30744503 -530.91796875 99.27197266 C-527.62940814 98.08278253 -524.35335725 96.86106484 -521.07666016 95.63964844 C-513.45531825 92.80169934 -505.801541 90.1134419 -498.07421875 87.578125 C-492.9146578 85.88245207 -487.79798657 84.08769279 -482.6875 82.25 C-476.54975428 80.0527949 -470.38167559 78.16812172 -464.09375 76.4375 C-459.85058033 75.20444215 -455.68144298 73.80075284 -451.5 72.375 C-444.71430318 70.06676838 -437.91621768 68.0758467 -430.96484375 66.33203125 C-428.29275798 65.60704674 -425.72106274 64.81438508 -423.10546875 63.921875 C-418.39452299 62.32395493 -413.63029712 61.04414652 -408.8125 59.8125 C-403.3327238 58.39878777 -397.87540441 56.94417494 -392.4375 55.375 C-345.20771244 42.00863396 -297.64182547 31.57737012 -249.29785156 23.06054688 C-245.85492156 22.44912849 -242.41395166 21.8281709 -238.97360229 21.20246887 C-209.70629107 15.88268605 -209.70629107 15.88268605 -196.9609375 14.796875 C-194.32973866 14.48183124 -192.08553496 14.06768291 -189.5546875 13.390625 C-185.13205782 12.2205266 -180.73564527 11.77828382 -176.1875 11.375 C-171.07192425 10.91228461 -166.03250894 10.33290986 -160.97265625 9.4375 C-152.73375602 8.02444422 -144.43899208 7.20529122 -136.125 6.375 C-135.26178131 6.28784729 -134.39856262 6.20069458 -133.50918579 6.11090088 C-118.906145 4.65141523 -104.31087315 3.67730107 -89.64916992 3.05859375 C-88.1658456 2.99496068 -86.68252862 2.93115638 -85.19921875 2.8671875 C-84.05178192 2.81925552 -84.05178192 2.81925552 -82.88116455 2.77035522 C-78.56415603 2.57420764 -74.27038455 2.28662523 -69.96704102 1.88916016 C-46.68004716 -0.21454929 -23.36226132 -0.02198108 0 0 Z " fill="#2D2C2C" transform="translate(2099.4375,1951.625)"/>
<path d="M0 0 C0 210.87 0 421.74 0 639 C-3.41698755 640.70849378 -4.72413141 641.26293341 -8.2734375 641.52734375 C-9.09126709 641.59566406 -9.90909668 641.66398437 -10.75170898 641.734375 C-11.61739502 641.80140625 -12.48308105 641.8684375 -13.375 641.9375 C-20.69857743 642.58115705 -27.63697897 643.61718443 -34.80078125 645.28125 C-40.91387476 646.65464341 -47.12298654 647.45335658 -53.32373047 648.32763672 C-55.03306778 648.56945836 -56.74204262 648.81385325 -58.45068359 649.06054688 C-60.13120509 649.30308989 -61.81248128 649.5404888 -63.49462891 649.77148438 C-69.03085409 650.5727654 -74.3656803 651.80166761 -79.7800293 653.19946289 C-85.60584032 654.6478543 -91.49273414 655.80613632 -97.375 657 C-102.25084701 657.99591769 -107.12575196 658.99628715 -112 660 C-113.27262695 660.25910156 -114.54525391 660.51820313 -115.85644531 660.78515625 C-117.09233398 661.04167969 -118.32822266 661.29820312 -119.6015625 661.5625 C-120.71096191 661.79066406 -121.82036133 662.01882813 -122.96337891 662.25390625 C-125.97412384 662.90934546 -125.97412384 662.90934546 -128.58740234 664.08984375 C-131 665 -131 665 -136 665 C-136 459.74 -136 254.48 -136 43 C-131.36208976 41.01232418 -127.14006393 39.32612157 -122.37109375 37.87109375 C-121.09285089 37.47755182 -119.81461214 37.08399654 -118.53637695 36.69042969 C-117.53702621 36.38510315 -117.53702621 36.38510315 -116.51748657 36.0736084 C-105.22824034 32.62109364 -93.99489561 29.03614091 -82.8125 25.25 C-67.97499844 20.23868524 -53.02496861 15.60453019 -38.05786133 10.99707031 C-36.22080132 10.43054785 -34.38380483 9.86381941 -32.546875 9.296875 C-31.65916916 9.02345276 -30.77146332 8.75003052 -29.8568573 8.46832275 C-23.07642927 6.36693512 -16.34244055 4.14052417 -9.64422607 1.78973389 C-6.19963321 0.60684548 -3.68928482 0 0 0 Z " fill="#2A2A29" transform="translate(1892,1307)"/>
<path d="M0 0 C0 132.33 0 264.66 0 401 C-6.08975573 403.7065581 -10.98987899 405.69876285 -17.3125 407 C-23.51533965 408.36399666 -29.47854161 410.02309392 -35.48046875 412.125 C-37.62174864 412.86863829 -39.75255493 413.52612855 -41.9375 414.125 C-44.93862326 414.92613535 -44.93862326 414.92613535 -47.5 416 C-50.6059731 417.24238924 -53.78465803 418.08133086 -57 419 C-57.825 419.33 -58.65 419.66 -59.5 420 C-62.6059731 421.24238924 -65.78465803 422.08133086 -69 423 C-69.825 423.33 -70.65 423.66 -71.5 424 C-74.6059731 425.24238924 -77.78465803 426.08133086 -81 427 C-81.825 427.33 -82.65 427.66 -83.5 428 C-86.60927819 429.24371127 -89.77796389 430.08708977 -93 431 C-100.33440165 433.33363006 -107.57082727 435.95889567 -114.8125 438.5625 C-115.93076172 438.96146484 -117.04902344 439.36042969 -118.20117188 439.77148438 C-119.27560547 440.15755859 -120.35003906 440.54363281 -121.45703125 440.94140625 C-122.42616455 441.28888916 -123.39529785 441.63637207 -124.39379883 441.99438477 C-126.9662066 442.93046278 -126.9662066 442.93046278 -129.15893555 444.12866211 C-131 445 -131 445 -134 445 C-134 298.48 -134 151.96 -134 1 C-89.34754827 -0.17506452 -44.66791043 0 0 0 Z " fill="#2B2B2A" transform="translate(1680,1591)"/>
<path d="M0 0 C19.51125 -0.0825 39.0225 -0.165 59.125 -0.25 C68.30014404 -0.30462402 68.30014404 -0.30462402 77.66064453 -0.36035156 C85.24194336 -0.37841797 85.24194336 -0.37841797 88.81271362 -0.3817749 C91.25927661 -0.38783981 93.70582912 -0.40174306 96.15231323 -0.42230225 C117.07377524 -0.58903118 137.02381185 0.72761685 156.5625 8.75 C157.65892822 9.18683105 158.75535645 9.62366211 159.88500977 10.07373047 C167.83619412 13.3238237 175.01524039 16.96164655 182 22 C183.00160156 22.69222656 184.00320312 23.38445313 185.03515625 24.09765625 C189.74186289 27.41529532 194.12924259 30.71078233 198 35 C198.86818359 35.87978516 198.86818359 35.87978516 199.75390625 36.77734375 C209.80520082 47.34005448 216.84531516 60.71830235 221.19140625 74.56640625 C222.0252718 77.20559254 222.0252718 77.20559254 223.52563477 80.44873047 C225.48471937 85.68468004 225.43176753 90.71838493 225.3984375 96.25390625 C225.40274277 97.84343361 225.40274277 97.84343361 225.40713501 99.46507263 C225.40916757 101.69473814 225.40369457 103.9244218 225.39111328 106.15405273 C225.3750327 109.55558298 225.39099844 112.95592798 225.41015625 116.35742188 C225.40817399 118.53125261 225.40433067 120.7050826 225.3984375 122.87890625 C225.40451019 123.889496 225.41058289 124.90008575 225.4168396 125.94129944 C225.35906003 131.77435962 224.66080043 135.80259551 222 141 C221.56745993 142.63656973 221.16919785 144.28274381 220.8125 145.9375 C214.00027797 171.86674302 195.37621226 191.39648168 172.875 204.6875 C170.9219725 205.80102461 168.96409209 206.90610982 167 208 C166.278125 208.40347656 165.55625 208.80695312 164.8125 209.22265625 C159.71321786 211.92650948 154.55580256 213.43130281 149 215 C142.565 216.98 142.565 216.98 136 219 C91.09197053 225.41543278 45.36396024 224 0 224 C0 150.08 0 76.16 0 0 Z " fill="#2A292A" transform="translate(2239,2360)"/>
<path d="M0 0 C34.65 -0.12375 34.65 -0.12375 70 -0.25 C80.90160156 -0.30462402 80.90160156 -0.30462402 92.0234375 -0.36035156 C100.96484375 -0.37841797 100.96484375 -0.37841797 105.16357422 -0.3817749 C108.06799793 -0.38547021 110.97212297 -0.40033277 113.87646484 -0.42230225 C145.35690567 -0.64999736 145.35690567 -0.64999736 158 4 C158.88083252 4.32127869 159.76166504 4.64255737 160.66918945 4.97357178 C175.06563638 10.6085861 187.11555285 21.1613309 194 35 C198.87317435 46.2798651 198.78047759 63.37053085 195 75 C190.14736119 85.21766805 183.60733375 92.21224859 174 98 C173.319375 98.41636719 172.63875 98.83273438 171.9375 99.26171875 C167.32565789 102 167.32565789 102 165 102 C167.93824543 105.29944818 170.43302211 106.80037427 174.5625 108.3125 C189.71431709 114.35474901 198.40165347 122.78567891 206 137 C206.37511719 137.63550781 206.75023437 138.27101563 207.13671875 138.92578125 C209.70477962 145.09609944 209.18301972 152.23992475 209.1875 158.8125 C209.19974609 159.74642578 209.21199219 160.68035156 209.22460938 161.64257812 C209.25822847 177.79094856 203.8152388 190.91072957 192.75854492 202.57714844 C174.16761765 221.07895884 143.77238437 224.74494325 118.86646843 224.69119096 C115.9099926 224.67475112 112.95381283 224.64199325 109.99749756 224.60768127 C106.49374672 224.57281406 102.99025444 224.57186582 99.48632812 224.56762695 C89.32406363 224.53648018 79.16201507 224.45271438 69 224.375 C46.23 224.25125 23.46 224.1275 0 224 C0 150.08 0 76.16 0 0 Z " fill="#2A2929" transform="translate(1584,2360)"/>
<path d="M0 0 C23.8425 -0.061875 47.685 -0.12375 72.25 -0.1875 C79.76297852 -0.21481201 87.27595703 -0.24212402 95.01660156 -0.27026367 C104.22998047 -0.28381348 104.22998047 -0.28381348 108.55072021 -0.28633118 C111.55192799 -0.28911272 114.55297464 -0.30030122 117.55413818 -0.31672668 C121.39493821 -0.33746561 125.2355075 -0.34344393 129.07635832 -0.33921683 C130.47804545 -0.34009936 131.87974154 -0.34595207 133.28138018 -0.35764539 C141.99050625 -0.4268647 149.65959883 0.47869851 158 3 C158.75674137 3.21225629 159.51348274 3.42451258 160.29315567 3.64320087 C177.51487658 8.59149221 192.40075213 17.5037055 201.5390625 33.26171875 C202.26222656 34.61716797 202.26222656 34.61716797 203 36 C203.72316406 37.30904297 203.72316406 37.30904297 204.4609375 38.64453125 C207.70292574 45.04417855 208.86930068 51.1149523 209.640625 58.2265625 C209.70070318 60.90416277 209.70070318 60.90416277 211 62 C212.78948573 78.79363527 207.77688747 95.47761765 197.62011719 108.81152344 C194.63007546 112.44391648 191.38675387 115.73848819 188 119 C187.44183594 119.58910156 186.88367187 120.17820312 186.30859375 120.78515625 C178.91835865 128.02102613 164.57541607 135.19295994 154.25 136.29296875 C153.5075 136.25816406 152.765 136.22335938 152 136.1875 C151.236875 136.16042969 150.47375 136.13335938 149.6875 136.10546875 C149.130625 136.07066406 148.57375 136.03585938 148 136 C149.07918302 139.23754906 149.62756111 139.71976544 152.20703125 141.71484375 C156.07502709 144.91468642 158.80814652 148.47985686 161.6875 152.5625 C165.5637306 157.90260659 169.57129292 162.91103328 174.125 167.6875 C178.50506718 172.28748983 182.46528121 177.03686731 186.27514648 182.11694336 C189.7176854 186.69203269 193.37453457 191.05060693 197.09912109 195.39746094 C200.29250207 199.13388745 203.32208304 202.96242514 206.3046875 206.8671875 C208.83560225 210.05124154 211.56046214 213.05056556 214.30078125 216.0546875 C218 220.28965517 218 220.28965517 218 224 C210.15336455 224.20319089 202.30740946 224.3430854 194.45874023 224.43945312 C191.78919057 224.47511737 189.12308293 224.53415535 186.45385742 224.60351562 C182.61332887 224.70079852 178.77513144 224.7459848 174.93359375 224.78125 C173.15038979 224.84318542 173.15038979 224.84318542 171.3311615 224.90637207 C163.2063397 224.91075299 163.2063397 224.91075299 159.71835327 222.27742004 C157.92850997 220.26551637 156.43778379 218.27328987 155 216 C154.29359375 214.95199219 153.5871875 213.90398438 152.859375 212.82421875 C152.24578125 211.89222656 151.6321875 210.96023437 151 210 C149.44957338 208.24126776 147.86488205 206.5122405 146.25 204.8125 C142.89264329 201.1851804 139.84444858 197.54119829 137 193.5 C133.53579958 188.58890463 129.66242388 184.27526233 125.5703125 179.8828125 C122.4190914 176.34846421 119.59623355 172.62799786 116.75708008 168.84301758 C113.21543753 164.16827159 109.32758194 159.89995103 105.27734375 155.65625 C102.99971574 152.99966845 101.53319799 150.37908952 99.875 147.3125 C98.34413504 144.75733582 98.34413504 144.75733582 96 143 C90.5317551 142.01324904 85.53221814 142.41255301 80 143 C68.38649548 144.16135045 56.6714276 144 45 144 C45 170.4 45 196.8 45 224 C30.15 224 15.3 224 0 224 C0 150.08 0 76.16 0 0 Z " fill="#292929" transform="translate(1844,2360)"/>
<path d="M0 0 C43.56 0 87.12 0 132 0 C132 79.2 132 158.4 132 240 C124.41 243.3 116.82 246.6 109 250 C103.01700947 252.63755414 97.03612215 255.27892641 91.0625 257.9375 C90.30094604 258.27628174 89.53939209 258.61506348 88.75476074 258.96411133 C61.85895774 270.90886432 61.85895774 270.90886432 35.40185547 283.78515625 C32.39065721 285.30820184 29.36931676 286.81031994 26.34765625 288.3125 C24.55718198 289.20345487 22.76670782 290.09440996 20.97625732 290.9854126 C19.21592984 291.86086123 17.45489436 292.73488576 15.69384766 293.60888672 C14.0722876 294.41737061 14.0722876 294.41737061 12.41796875 295.2421875 C11.44625732 295.7254248 10.4745459 296.20866211 9.47338867 296.70654297 C6.85456029 298.02042938 6.85456029 298.02042938 4 300 C2.68 300 1.36 300 0 300 C0 201 0 102 0 0 Z " fill="#292929" transform="translate(1344,1824)"/>
<path d="M0 0 C2.34934946 0.00536381 4.69850783 0.0000178 7.04785156 -0.00634766 C18.96769015 -0.01363309 30.8474462 -0.01127957 42.41503906 3.19287109 C43.20523438 3.40693604 43.99542969 3.62100098 44.80957031 3.84155273 C62.95342641 8.97482334 79.34978886 16.69694057 94.35253906 28.13037109 C93.75406205 31.83081344 92.18089974 33.85284676 89.79003906 36.69287109 C86.83292921 40.28364734 84.00596752 43.91603308 81.29003906 47.69287109 C77.7600525 52.59990191 74.09979544 57.38774974 70.35253906 62.13037109 C66.28992339 61.92203183 63.76832206 60.88545169 60.54003906 58.56787109 C56.17122793 55.49187142 51.61524981 53.19784281 46.79003906 50.94287109 C45.72789185 50.44388306 45.72789185 50.44388306 44.64428711 49.93481445 C39.95856965 47.77346962 35.22022252 45.84306374 30.35253906 44.13037109 C29.48218018 43.78014893 28.61182129 43.42992676 27.71508789 43.0690918 C23.33147828 41.84532218 19.23588148 41.76782885 14.70410156 41.72412109 C13.77391205 41.71272095 12.84372253 41.7013208 11.88534546 41.6895752 C9.91693627 41.67072791 7.94846472 41.6576282 5.97998047 41.64990234 C3.02095466 41.63065352 0.06481014 41.56864105 -2.89355469 41.50537109 C-18.30559393 41.33259911 -30.15707563 44.33477811 -43.39746094 52.38037109 C-50.42871094 56.59912109 -50.42871094 56.59912109 -53.64746094 58.13037109 C-53.64746094 58.79037109 -53.64746094 59.45037109 -53.64746094 60.13037109 C-55.15136719 61.57568359 -55.15136719 61.57568359 -57.20996094 63.25537109 C-66.49613282 71.26857038 -71.80345858 79.96256105 -76.64746094 91.13037109 C-77.19358032 92.35203979 -77.19358032 92.35203979 -77.75073242 93.59838867 C-80.84032082 101.13759219 -81.38149292 108.09363215 -81.33496094 116.19287109 C-81.32988525 117.46767334 -81.32480957 118.74247559 -81.31958008 120.0559082 C-81.05278303 131.00013106 -78.77175498 139.54456287 -73.64746094 149.13037109 C-73.10734375 150.22994141 -72.56722656 151.32951172 -72.01074219 152.46240234 C-62.81191683 169.81321337 -46.77605468 182.38907317 -28.12011719 188.23583984 C-26.15483724 188.71440616 -24.18134706 189.16175464 -22.19824219 189.56005859 C-19.64746094 190.13037109 -19.64746094 190.13037109 -17.39746094 191.1472168 C-11.96693078 193.08868918 -6.04105871 192.45696022 -0.33496094 192.44287109 C0.95861328 192.45898438 2.2521875 192.47509766 3.58496094 192.49169922 C10.63738358 192.4953066 15.92941892 192.03041726 22.35253906 189.13037109 C24.87207031 188.64599609 24.87207031 188.64599609 27.16503906 188.38037109 C32.70622495 187.46460088 37.78999613 185.69325533 43.04003906 183.75537109 C43.83579346 183.46307617 44.63154785 183.17078125 45.45141602 182.86962891 C49.35002239 181.39717302 53.09854429 179.80325145 56.80957031 177.90380859 C60.35253906 176.13037109 60.35253906 176.13037109 62.35253906 176.13037109 C62.35253906 164.58037109 62.35253906 153.03037109 62.35253906 141.13037109 C42.55253906 141.13037109 22.75253906 141.13037109 2.35253906 141.13037109 C2.35253906 127.93037109 2.35253906 114.73037109 2.35253906 101.13037109 C36.67253906 101.13037109 70.99253906 101.13037109 106.35253906 101.13037109 C106.55878906 116.66099609 106.76503906 132.19162109 106.97753906 148.19287109 C107.0685791 153.08881104 107.15961914 157.98475098 107.25341797 163.02905273 C107.29858398 169.02770996 107.29858398 169.02770996 107.30697632 171.83982849 C107.32228991 173.79558587 107.3573769 175.75125122 107.40829468 177.70640564 C107.81729411 194.24421962 107.81729411 194.24421962 104.17428589 198.93528748 C101.61405782 200.75295871 99.25878008 201.96988444 96.35253906 203.13037109 C95.27746094 203.84064453 94.20238281 204.55091797 93.09472656 205.28271484 C71.63047991 218.64669402 49.1716826 227.15386339 24.35253906 232.13037109 C23.63759277 232.30165527 22.92264648 232.47293945 22.18603516 232.64941406 C18.44792473 233.28392014 14.7396078 233.37088117 10.95800781 233.43896484 C10.14145721 233.45409119 9.32490662 233.46921753 8.48361206 233.48480225 C5.83571957 233.52473424 3.18816906 233.54981641 0.54003906 233.56787109 C-0.80829514 233.5771312 -0.80829514 233.5771312 -2.18386841 233.58657837 C-17.16060765 233.62988646 -30.40507615 232.03684574 -44.64746094 227.13037109 C-46.23467613 226.61206723 -47.82191509 226.09383613 -49.40917969 225.57568359 C-68.44603844 219.18125691 -83.83160074 209.27668088 -98.23632812 195.47851562 C-99.39623747 194.37038078 -100.57069576 193.27749431 -101.74902344 192.18896484 C-119.54360249 175.32880433 -129.34302675 150.52454699 -130.10839844 126.31005859 C-130.17430239 123.14582884 -130.19808344 119.98271295 -130.20996094 116.81787109 C-130.21845062 116.06172516 -130.22694031 115.30557922 -130.23568726 114.52651978 C-130.40590382 93.19743043 -123.89408105 74.18862339 -112.64746094 56.13037109 C-112.08800781 55.22931641 -111.52855469 54.32826172 -110.95214844 53.39990234 C-102.57703149 40.98745324 -90.58787888 28.69019797 -77.64746094 21.13037109 C-77.0933252 20.79134766 -76.53918945 20.45232422 -75.96826172 20.10302734 C-62.28423908 11.74438524 -48.00514764 5.50323994 -32.17480469 2.63818359 C-29.72018037 2.38774325 -29.72018037 2.38774325 -28.64746094 1.13037109 C-19.17284412 -0.15014501 -9.54223508 -0.02585433 0 0 Z " fill="#2A2A2A" transform="translate(2641.6474609375,2354.86962890625)"/>
<path d="M0 0 C0 71.61 0 143.22 0 217 C-44.88 217 -89.76 217 -136 217 C-136.61480458 175.80809315 -137.14588912 134.66905188 -137.06866455 93.48052979 C-137.05805454 87.1673622 -137.05379024 80.85418972 -137.04882812 74.54101562 C-137.03840089 62.36066555 -137.02156296 50.18033514 -137 38 C-135.74249863 37.5231459 -134.48448256 37.04764897 -133.22625732 36.57270813 C-132.17550585 36.17529655 -132.17550585 36.17529655 -131.10352707 35.76985645 C-128.00503902 34.63586058 -124.86222172 33.68092474 -121.703125 32.73046875 C-120.70247513 32.42816345 -120.70247513 32.42816345 -119.68161011 32.11975098 C-117.53852974 31.47301099 -115.39432418 30.83010277 -113.25 30.1875 C-111.75889471 29.73887794 -110.26784692 29.29006472 -108.77685547 28.84106445 C-105.84283436 27.95785503 -102.90837353 27.07612754 -99.97363281 26.1953125 C-96.66466773 25.20130888 -93.35886063 24.19733572 -90.0546875 23.1875 C-81.39119506 20.54634326 -72.70592985 18.08377537 -63.93457031 15.82519531 C-58.71107168 14.47417797 -53.53984065 12.99666345 -48.375 11.4375 C-42.14342991 9.56492366 -35.88874824 7.96678303 -29.54370117 6.52807617 C-23.06276588 5.05012599 -16.64940215 3.34512135 -10.24267578 1.57421875 C-9.10741455 1.26677734 -9.10741455 1.26677734 -7.94921875 0.953125 C-7.28237061 0.76911133 -6.61552246 0.58509766 -5.9284668 0.39550781 C-4 0 -4 0 0 0 Z " fill="#2B2A29" transform="translate(1892,2047)"/>
<path d="M0 0 C61.71 0 123.42 0 187 0 C187 13.33749935 186.7010034 26.68093535 186 40 C139.47 40 92.94 40 45 40 C45.33 56.5 45.66 73 46 90 C88.24 90.33 130.48 90.66 174 91 C174 103.21 174 115.42 174 128 C130.77 128 87.54 128 43 128 C43.33 146.48 43.66 164.96 44 184 C92.18 184 140.36 184 190 184 C190 197.2 190 210.4 190 224 C127.3 224 64.6 224 0 224 C0 150.08 0 76.16 0 0 Z " fill="#282728" transform="translate(2810,2360)"/>
<path d="M0 0 C12.21 0 24.42 0 37 0 C49.87597201 15.02196734 49.87597201 15.02196734 55.77734375 23.0546875 C58.15522762 26.20569705 60.64251974 29.23400847 63.1875 32.25 C66.42451249 36.0905233 69.53795483 39.96572446 72.51171875 44.01171875 C74.85499856 47.14224217 77.32017975 50.17338598 79.77734375 53.21484375 C82.88912934 57.11414626 85.94230404 61.05821958 89 65 C90.11966616 66.44150374 91.23945519 67.88291206 92.359375 69.32421875 C92.91197998 70.03545898 93.46458496 70.74669922 94.03393555 71.47949219 C101.11755915 80.59377471 108.23316621 89.68212906 115.37792969 98.74853516 C121.54625418 106.57656628 127.66853692 114.4368315 133.73095703 122.34716797 C135.07660722 124.09977509 136.42650684 125.84904419 137.77734375 127.59765625 C138.23294678 128.18796631 138.6885498 128.77827637 139.15795898 129.38647461 C140.03046002 130.51674201 140.90363304 131.64649111 141.77758789 132.77563477 C143.60243144 135.14205927 145.34124148 137.51186222 147 140 C147.99 140.33 148.98 140.66 150 141 C150 94.47 150 47.94 150 0 C163.86 0 177.72 0 192 0 C192.02254384 29.05831895 192.04097731 58.11663086 192.05181217 87.17495632 C192.05283207 89.85695331 192.05387339 92.53895029 192.05493164 95.22094727 C192.05532511 96.22091444 192.05532511 96.22091444 192.05572652 97.24108297 C192.06008323 108.04920919 192.06797078 118.85733012 192.0771528 129.66545319 C192.08648931 140.74748907 192.0919807 151.82952279 192.09408849 162.9115625 C192.09539602 169.13957334 192.09848449 175.36757215 192.10573006 181.59557915 C192.11248642 187.45018075 192.11461775 193.3047653 192.11310768 199.15937042 C192.11338418 201.31494044 192.11539157 203.47051099 192.11920547 205.62607765 C192.12413673 208.55534085 192.1230004 211.48453857 192.12025452 214.4138031 C192.12462378 215.71095604 192.12462378 215.71095604 192.12908131 217.0343141 C192.11412121 222.88587879 192.11412121 222.88587879 191 224 C186.5901245 224.46090455 182.17671213 224.61383719 177.74707031 224.73461914 C176.26233361 224.7860784 174.77820196 224.86087038 173.29589844 224.96020508 C161.03135961 225.76693797 161.03135961 225.76693797 156.19604492 221.56103516 C153.89427471 218.47497428 151.93827811 215.32382604 150 212 C148.86278352 210.51039138 147.69539346 209.04292837 146.48828125 207.609375 C145.95783203 206.96226562 145.42738281 206.31515625 144.88085938 205.6484375 C144.36330078 205.02195312 143.84574219 204.39546875 143.3125 203.75 C139.06564195 198.59790425 134.98078565 193.36025124 131 188 C127.3842486 183.25481649 123.67843908 178.59611194 119.875 174 C113.22308369 165.9089127 106.94130948 157.52665356 100.61962891 149.17675781 C95.55585628 142.49035043 90.34903453 135.96706044 84.89624023 129.5949707 C81.75083075 125.9136725 78.75014206 122.15306336 75.80859375 118.30859375 C73.59904116 115.48819293 71.30385715 112.74325922 69 110 C65.52055627 105.85595072 62.14815935 101.64926243 58.85546875 97.35546875 C55.78092832 93.45242059 52.54969408 89.67971886 49.33203125 85.89453125 C43 78.03517588 43 78.03517588 43 75 C42.34 75 41.68 75 41 75 C41 124.17 41 173.34 41 224 C27.47 224 13.94 224 0 224 C0 150.08 0 76.16 0 0 Z " fill="#292829" transform="translate(1335,2360)"/>
<path d="M0 0 C59.07 0 118.14 0 179 0 C179 12.87 179 25.74 179 39 C134.45 39 89.9 39 44 39 C44 57.48 44 75.96 44 95 C84.92 95 125.84 95 168 95 C168 106.88 168 118.76 168 131 C167 132 167 132 164.95601559 132.12304783 C164.04989308 132.12212604 163.14377058 132.12120424 162.21018982 132.12025452 C161.17387421 132.12162918 160.13755859 132.12300385 159.06983948 132.12442017 C157.92329391 132.12082489 156.77674835 132.11722961 155.59545898 132.11352539 C154.39562378 132.11367142 153.19578857 132.11381744 151.95959473 132.1139679 C148.66014809 132.11338894 145.36076336 132.10835978 142.0613277 132.10139394 C138.61665703 132.09515973 135.17198562 132.09455655 131.72731018 132.09336853 C125.2001727 132.09025541 118.67305189 132.08204229 112.14592177 132.07201904 C103.98856042 132.0597632 95.83119638 132.05427529 87.67382812 132.04882812 C73.11587242 132.03907686 58.55795311 132.0190466 44 132 C44 162.36 44 192.72 44 224 C29.48 224 14.96 224 0 224 C0 150.08 0 76.16 0 0 Z " fill="#282729" transform="translate(1012,2360)"/>
<path d="M0 0 C77.88073394 0 77.88073394 0 96 10 C96.57331055 10.31517578 97.14662109 10.63035156 97.73730469 10.95507812 C101.62017918 13.12473243 105.32652415 15.48765078 109 18 C109.66386719 18.43441406 110.32773438 18.86882813 111.01171875 19.31640625 C126.07405634 30.516606 132.21642641 51.45317683 135 69 C137.18229996 84.67288157 130.75863363 102.43659519 121.86328125 115.0234375 C108.84263276 131.61169823 92.01406189 141.1741896 71.24609375 144.54296875 C68.43556534 145.11485018 65.72093853 146.09302049 63 147 C42.21 147 21.42 147 0 147 C0 98.49 0 49.98 0 0 Z " fill="#FDFDFD" transform="translate(2284,2397)"/>
<path d="M0 0 C0.20777187 51.00869984 -0.40343125 101.99337224 -1 153 C-45.22 153 -89.44 153 -135 153 C-135 120.33 -135 87.66 -135 54 C-130.71 52.35 -126.42 50.7 -122 49 C-118.4248033 47.48073585 -114.86443942 45.94589498 -111.3125 44.375 C-101.6065853 40.11817628 -91.86219861 35.95970808 -82.09692383 31.84106445 C-75.42704766 29.02783355 -68.76690227 26.19516552 -62.125 23.31640625 C-54.37962977 20.05366904 -46.53723282 17.01831762 -38.72265625 13.92578125 C-37.78949081 13.55647995 -36.85632538 13.18717865 -35.8948822 12.8066864 C-33.94290716 12.03433748 -31.99088538 11.26210665 -30.03881836 10.48999023 C-28.04193227 9.69998272 -26.0451892 8.90961361 -24.04858398 8.11889648 C-21.14858264 6.9704116 -18.24816882 5.82297432 -15.34765625 4.67578125 C-14.45393814 4.32163651 -13.56022003 3.96749176 -12.63941956 3.60261536 C-11.39683632 3.11156563 -11.39683632 3.11156563 -10.12915039 2.6105957 C-9.40208389 2.32287796 -8.6750174 2.03516022 -7.92591858 1.73872375 C-5.11510171 0.66057995 -3.04152206 0 0 0 Z " fill="#2C2C2A" transform="translate(1681,2111)"/>
<path d="M0 0 C15.18 0 30.36 0 46 0 C46 73.92 46 147.84 46 224 C30.82 224 15.64 224 0 224 C0 150.08 0 76.16 0 0 Z " fill="#272727" transform="translate(2121,2360)"/>
<path d="M0 0 C14.52 0 29.04 0 44 0 C44 74.25 44 148.5 44 225 C29.48 225 14.96 225 0 225 C0 150.75 0 76.5 0 0 Z " fill="#262526" transform="translate(1228,2359)"/>
<path d="M0 0 C8.22169272 4.11084636 13.88562804 11.57984775 17.36284286 20.04784048 C21.68238452 33.28230627 19.81201583 49.33699321 19.6249187 63.04200172 C19.56398095 68.6476882 19.58495272 74.25317543 19.59555054 79.85910034 C19.60286176 89.55139882 19.55925408 99.24236933 19.48022079 108.9343338 C19.36603137 122.94673094 19.32993918 136.95849148 19.31238891 150.97130343 C19.28181177 173.71045318 19.18893869 196.4487756 19.05615234 219.1875 C18.92737737 241.26493687 18.82830213 263.34218418 18.76904297 285.41992188 C18.7672016 286.10156896 18.76536024 286.78321604 18.76346307 287.4855191 C18.74500231 294.33148248 18.72714113 301.17744731 18.70971904 308.02341341 C18.56377572 365.34943541 18.31588278 422.67467766 18 480 C12.06 480 6.12 480 0 480 C0 321.6 0 163.2 0 0 Z " fill="#353034" transform="translate(2010,1453)"/>
<path d="M0 0 C15.3140625 -0.0309375 15.3140625 -0.0309375 30.9375 -0.0625 C34.12398193 -0.071604 37.31046387 -0.08070801 40.59350586 -0.09008789 C78.05543992 -0.15521999 78.05543992 -0.15521999 91 2.75 C91.79760742 2.9262793 92.59521484 3.10255859 93.41699219 3.28417969 C105.07305067 6.02481223 111.51660442 11.34381959 118.16015625 21.20703125 C120.4645941 25.35247548 120.6918945 29.13632647 120.625 33.8125 C120.61734619 34.60567627 120.60969238 35.39885254 120.60180664 36.21606445 C120.23339746 45.97141963 115.56811425 52.10643294 108.58203125 58.60546875 C108.05996094 59.06566406 107.53789063 59.52585937 107 60 C106.0409375 60.86625 106.0409375 60.86625 105.0625 61.75 C102.48892874 63.30974016 99.83858974 64.27259691 97 65.25390625 C95.00350186 65.91459529 95.00350186 65.91459529 93.42547607 67.03244019 C89.75529986 68.49653008 86.08460261 68.26050685 82.19238281 68.22705078 C80.86014427 68.22748886 80.86014427 68.22748886 79.50099182 68.22793579 C76.56826982 68.22654357 73.63580256 68.21098737 70.703125 68.1953125 C68.66860086 68.19158199 66.63407492 68.1887352 64.59954834 68.18673706 C59.24671461 68.17910362 53.89398955 68.15945755 48.54119873 68.1373291 C42.11764268 68.11326593 35.69405027 68.10408832 29.27046204 68.09242249 C19.5135658 68.07303305 9.75690796 68.03470837 0 68 C0 45.56 0 23.12 0 0 Z " fill="#FCFCFC" transform="translate(1888,2396)"/>
<path d="M0 0 C2 0 2 0 3.41015625 1.3984375 C4.55826508 2.77182537 5.70198401 4.14889018 6.84224033 5.52880454 C8.95440477 8.02411097 8.95440477 8.02411097 11.31412411 10.20413804 C16.80020634 15.57219648 19.03001709 19.28866909 19.1832428 26.99176097 C19.16023605 28.10788744 19.13722931 29.22401392 19.11352539 30.3739624 C19.1245932 31.58484441 19.13566101 32.79572642 19.14706421 34.04330182 C19.16862632 37.38091656 19.15023302 40.71385835 19.11447453 44.05105233 C19.08573263 47.66044929 19.10927881 51.26956401 19.12632751 54.87898254 C19.14882334 61.13285211 19.138653 67.38597704 19.10620117 73.6397934 C19.05922072 82.72285057 19.06336987 91.80533942 19.07967114 100.88847747 C19.10493721 115.68179189 19.0908605 130.47479331 19.05126953 145.26806641 C19.01317426 159.53925299 18.99065144 173.81030256 18.99169922 188.08154297 C18.9917563 188.95651608 18.99181338 189.8314892 18.99187219 190.73297665 C18.99246855 196.87276595 18.99412394 203.01255475 18.99609375 209.15234375 C18.99826581 216.03029373 19.00021727 222.90824368 19.00170898 229.78619385 C19.00192067 230.62381737 19.00213235 231.46144089 19.00235045 232.32444695 C19.0048942 243.78468232 18.99317726 255.24481595 18.96977855 266.7050264 C18.91203759 295.68215198 18.8813601 324.63555865 19.89530563 353.59963036 C20.12124532 360.93792841 20.15178152 368.27856672 20.13037109 375.61987305 C20.12465897 377.95171718 20.13058046 380.28339349 20.13671875 382.61523438 C20.13606283 384.12500042 20.13479195 385.63476636 20.1328125 387.14453125 C20.13168457 388.44753174 20.13055664 389.75053223 20.12939453 391.09301758 C20 394 20 394 19 395 C12.73 395 6.46 395 0 395 C0 264.65 0 134.3 0 0 Z " fill="#3A343A" transform="translate(2067,1537)"/>
<path d="M0 0 C21.8994099 -0.24065286 21.8994099 -0.24065286 31.30859375 -0.29296875 C37.70327004 -0.32869355 44.09742585 -0.37073453 50.49169922 -0.45263672 C55.65296975 -0.51832427 60.81368136 -0.55380942 65.97533798 -0.56926346 C67.93436341 -0.58026183 69.89336183 -0.60173689 71.85214615 -0.63438034 C86.74210195 -0.8724217 97.74756719 0.58545691 109.625 10.375 C115.30544078 15.89687347 118.61487478 21.95618518 119.375 29.9375 C119.28889487 37.46554823 115.78904307 44.07247498 111.9375 50.375 C102.58758498 58.73024321 92.28750997 60.09479225 80.28515625 60.55859375 C79.20428238 60.60084579 78.12340851 60.64309784 77.00978088 60.68663025 C62.57301385 61.19028769 48.13155972 61.11259393 33.68829346 61.06866455 C29.19484084 61.05635773 24.70137347 61.05199716 20.20790863 61.04621124 C13.47190983 61.0366948 6.73600385 61.01746587 0 61 C0 40.87 0 20.74 0 0 Z " fill="#FCFCFC" transform="translate(1628,2484)"/>
<path d="M0 0 C3.78206206 1.89103103 4.4787598 2.28722325 6.625 5.5 C9.09612299 9.07045725 11.86038478 11.64212929 15.13577843 14.47528648 C19.99030537 19.30864594 21.16750202 22.58414644 21.29081309 29.35213244 C21.26168467 30.5214161 21.23255626 31.69069976 21.20254517 32.89541626 C21.21536154 34.79483382 21.21536154 34.79483382 21.22843683 36.73262346 C21.25065917 40.2228812 21.21100811 43.71003464 21.16065621 47.19989705 C21.11727417 50.97207464 21.13209895 54.74409193 21.13967896 58.51644897 C21.14491033 65.0439328 21.1136667 71.57041334 21.05730057 78.09764481 C20.9758605 87.53462098 20.94996919 96.97111443 20.93742065 106.40840392 C20.91556055 121.72127442 20.84908333 137.03361076 20.75439453 152.34619141 C20.66253585 167.21660702 20.59178546 182.08687729 20.54931641 196.95751953 C20.54668917 197.87488693 20.54406194 198.79225434 20.54135509 199.73742075 C20.52830425 204.33980744 20.51566728 208.94219516 20.50323606 213.54458356 C20.39965054 251.69676657 20.22284537 289.84833943 20 328 C13.73 328 7.46 328 1 328 C0.67 219.76 0.34 111.52 0 0 Z " fill="#332C33" transform="translate(2123,1604)"/>
<path d="M0 0 C20.44212316 -0.28076167 20.44212316 -0.28076167 29.22460938 -0.34179688 C35.19372676 -0.38347829 41.16208529 -0.43252952 47.13061523 -0.52807617 C51.9482632 -0.60470739 56.76509638 -0.64610914 61.58330727 -0.6641407 C63.41201907 -0.67697329 65.24069142 -0.70203056 67.06905174 -0.7401104 C80.1299286 -1.00106124 89.79814766 0.14679732 99.73649597 9.60401917 C104.28526288 14.41901318 108.30877537 19.09313749 108.75 25.9375 C108.2302151 33.54526084 103.74871439 39.55260493 98.5625 44.875 C77.3703847 62.15472478 24.20365986 54.07035948 0 54 C0 36.18 0 18.36 0 0 Z " fill="#FDFDFD" transform="translate(1628,2396)"/>
<path d="M0 0 C3.51437061 1.75718531 5.49824895 3.19819574 8.3125 5.8125 C11.31817251 8.66363668 11.31817251 8.66363668 14.74694115 10.94398707 C17.66198901 12.59010146 19.64830852 13.83618472 20.64411628 17.13150561 C20.88534617 19.87027875 20.89911691 22.53302141 20.84178162 25.28205872 C20.84776259 26.32763669 20.85374356 27.37321467 20.85990578 28.45047683 C20.87145125 31.95977776 20.83291301 35.46674445 20.79467773 38.97583008 C20.79270357 41.48885035 20.79381085 44.00187466 20.79777527 46.51489258 C20.79937012 51.92810154 20.77949779 57.34055664 20.7401104 62.75361061 C20.68320135 70.57978222 20.66498843 78.4056683 20.65619446 86.23202439 C20.64087698 98.92982862 20.59430075 111.62731792 20.52807617 124.32495117 C20.46381521 136.65891953 20.41427019 148.99280232 20.38452148 161.3269043 C20.38268242 162.08727455 20.38084336 162.84764481 20.37894856 163.63105658 C20.36981325 167.44564104 20.3609673 171.26022611 20.35226524 175.07481158 C20.2797073 206.71677932 20.15449612 238.3583234 20 270 C13.4 269.67 6.8 269.34 0 269 C0 180.23 0 91.46 0 0 Z " fill="#322D33" transform="translate(2180,1663)"/>
<path d="M0 0 C0.99 0 1.98 0 3 0 C3 0.66 3 1.32 3 2 C3.70640625 2.24621094 4.4128125 2.49242187 5.140625 2.74609375 C8.37477508 4.16434809 10.91965451 5.95504005 13.75 8.0625 C14.71421875 8.77535156 15.6784375 9.48820312 16.671875 10.22265625 C19 12 19 12 20 13 C20.09787219 15.74376893 20.12993342 18.46235978 20.12025452 21.20655823 C20.12110894 22.07720931 20.12196337 22.94786038 20.12284368 23.84489483 C20.12450116 26.78537022 20.11897276 29.72578956 20.11352539 32.66625977 C20.11324355 34.76490274 20.11340119 36.86354581 20.1139679 38.96218872 C20.114256 44.6788979 20.10835728 50.39558629 20.10139394 56.11229062 C20.09516244 62.07941156 20.09455676 68.04653292 20.09336853 74.01365662 C20.09025461 85.32194629 20.0820404 96.63022636 20.07201904 107.93851179 C20.06085979 120.80890551 20.05534793 133.67929969 20.05032361 146.54969704 C20.03985784 173.0331367 20.02225723 199.51656781 20 226 C17.58299013 225.85870713 15.16649571 225.71213513 12.75 225.5625 C12.06808594 225.52318359 11.38617187 225.48386719 10.68359375 225.44335938 C7.29480029 225.22950348 4.31127702 224.82781925 1 224 C0.67 150.08 0.34 76.16 0 0 Z " fill="#352F35" transform="translate(2236,1712)"/>
<path d="M0 0 C0 20.46 0 40.92 0 62 C-38.94 62 -77.88 62 -118 62 C-117.67 61.01 -117.34 60.02 -117 59 C-115.3125 58.18359375 -115.3125 58.18359375 -113 57.4375 C-108.11145931 55.60601856 -103.82374226 53.25081967 -99.375 50.5625 C-92.25310214 46.26902463 -85.01438012 42.24577652 -77.6875 38.3125 C-71.52718822 35.00462645 -65.3826208 31.70383702 -59.375 28.125 C-54.33621401 25.13390643 -49.15143144 22.53029319 -43.89453125 19.9453125 C-39.4273226 17.73428153 -35.02903108 15.39612772 -30.625 13.0625 C-27.41819982 11.37207618 -24.20924464 9.68577715 -21 8 C-20.23171875 7.59475098 -19.4634375 7.18950195 -18.671875 6.77197266 C-16.49506973 5.62868075 -14.31138415 4.49984181 -12.125 3.375 C-11.47740723 3.03218994 -10.82981445 2.68937988 -10.16259766 2.33618164 C-6.30736048 0.37382198 -4.51472881 0 0 0 Z " fill="#2D2C2D" transform="translate(1477,2202)"/>
<path d="M0 0 C18.03544541 9.01772271 18.03544541 9.01772271 20.92259598 14.87016082 C22.32581865 19.99724731 22.00848233 25.2340069 21.81640625 30.49682617 C21.81188551 32.24226462 21.81444124 33.98773343 21.82348633 35.7331543 C21.82805437 40.44373812 21.73441565 45.14772539 21.62230301 49.85678267 C21.52186955 54.78782741 21.5128521 59.71904551 21.49389648 64.6509552 C21.44428258 73.97706303 21.31315814 83.30014847 21.15230465 92.62492877 C20.97308991 103.24607674 20.88540265 113.86737374 20.80517769 124.48965871 C20.63820275 146.32816806 20.35377148 168.16378656 20 190 C13.4 189.34 6.8 188.68 0 188 C0 125.96 0 63.92 0 0 Z " fill="#373337" transform="translate(2296,1756)"/>
<path d="M0 0 C1.4578597 -0.05583292 2.91640983 -0.09358421 4.375 -0.125 C5.18710938 -0.14820313 5.99921875 -0.17140625 6.8359375 -0.1953125 C11.27610564 0.07877195 15.63776969 1.12755394 20 2 C20 53.15 20 104.3 20 157 C12.17874465 155.04468616 4.71718884 152.99183368 0 146 C-2.87043703 136.32134887 -1.91133843 125.50173188 -1.62230301 115.50441313 C-1.52179041 111.43961316 -1.5128466 107.3745972 -1.49389648 103.30874634 C-1.44430294 95.62205313 -1.31321613 87.93903178 -1.15230465 80.25395072 C-0.97301802 71.49987191 -0.88538635 62.74561088 -0.80517769 53.99015117 C-0.63825119 35.9913576 -0.35711433 17.99597465 0 0 Z " fill="#2E2A2E" transform="translate(2696,1918)"/>
<path d="M0 0 C0.99 0 1.98 0 3 0 C3 0.66 3 1.32 3 2 C3.69656078 2.27400855 4.39312157 2.5480171 5.11079025 2.83032894 C6.54094908 3.40931612 6.54094908 3.40931612 8 4 C9.51736692 4.60119707 9.51736692 4.60119707 11.06538773 5.21453953 C19.3322933 9.13677702 19.3322933 9.13677702 21.0873642 14.03426933 C21.48066682 17.90669227 21.48687708 21.68333401 21.36230469 25.56420898 C21.35891642 27.04305239 21.36082646 28.52191597 21.36761475 30.00074768 C21.37104926 34.00198908 21.30066982 37.99888739 21.21672726 41.99912143 C21.14155119 46.18425191 21.13465052 50.36948957 21.12042236 54.55519104 C21.08316935 62.47492572 20.98476444 70.39266529 20.86422849 78.31152254 C20.72995347 87.32936846 20.66408548 96.34731129 20.60388327 105.3659085 C20.47855486 123.91173556 20.26757897 142.45570722 20 161 C13.63440427 160.50873071 7.30735307 160.00344253 1 159 C0.82825208 142.8125512 0.66177401 126.62505159 0.5 110.4375 C0.48812275 109.24934692 0.4762455 108.06119385 0.46400833 106.83703613 C0.10957093 71.22343209 -0.16630802 35.61550136 0 0 Z " fill="#363237" transform="translate(2352,1793)"/>
<path d="M0 0 C4.61662516 0.92332503 8.1369666 2.37521718 12.25 4.5 C12.88679688 4.82097656 13.52359375 5.14195313 14.1796875 5.47265625 C18.84503517 7.84503517 18.84503517 7.84503517 20 9 C20.09622036 10.70825688 20.12187628 12.42052114 20.12025452 14.13148499 C20.12162918 15.24352798 20.12300385 16.35557098 20.12442017 17.50131226 C20.12082489 18.73201447 20.11722961 19.96271667 20.11352539 21.23071289 C20.11367142 22.51833023 20.11381744 23.80594757 20.1139679 25.13258362 C20.11425586 28.6737476 20.10835936 32.21487799 20.10139394 35.75603414 C20.09516017 39.45294988 20.09455658 43.14986631 20.09336853 46.8467865 C20.09025528 53.85203899 20.08204199 60.85727595 20.07201904 67.86252159 C20.0608577 75.83578876 20.0553474 83.80905665 20.05032361 91.78232968 C20.03985937 108.18822889 20.02226005 124.59411247 20 141 C16.10921133 141.05296989 13.0926215 140.92908389 9.4375 139.5625 C6.20925138 138.37132805 3.45464589 137.69092918 0 137 C0 91.79 0 46.58 0 0 Z " fill="#2A272B" transform="translate(2411,1827)"/>
<path d="M0 0 C8 0 8 0 20 4 C20 48.22 20 92.44 20 138 C15.09707904 137.18284651 12.98284249 136.6657694 9.00390625 134.1328125 C6.12909532 132.50767572 3.03535138 131.30086488 0 130 C0 87.1 0 44.2 0 0 Z " fill="#342F33" transform="translate(2640,1908)"/>
<path d="M0 0 C4.50545743 0.79110816 8.20934295 2.41260663 12.25 4.5 C12.88679688 4.82097656 13.52359375 5.14195313 14.1796875 5.47265625 C18.84503517 7.84503517 18.84503517 7.84503517 20 9 C20.09594225 10.58154848 20.1218796 12.16739125 20.12025452 13.75184631 C20.12162918 14.77974777 20.12300385 15.80764923 20.12442017 16.86669922 C20.12082489 18.00389404 20.11722961 19.14108887 20.11352539 20.31274414 C20.11367142 21.50282578 20.11381744 22.69290741 20.1139679 23.91905212 C20.11338894 27.19163274 20.10835981 30.46417107 20.10139394 33.73674321 C20.09515967 37.15338665 20.09455654 40.57003083 20.09336853 43.98667908 C20.09025543 50.46069267 20.08204233 56.93468946 20.07201904 63.40869564 C20.06085725 70.7773792 20.05534729 78.14606355 20.05032361 85.51475346 C20.03985969 100.67651169 20.02226066 115.83825417 20 131 C18.39368467 130.68508438 16.78771112 130.36842501 15.18188477 130.05102539 C14.28752213 129.87487198 13.39315948 129.69871857 12.47169495 129.51722717 C9.89351056 128.97771601 7.4261856 128.30018412 4.9375 127.4375 C4.20402344 127.18871094 3.47054687 126.93992187 2.71484375 126.68359375 C1 126 1 126 0 125 C-0.09603022 123.3804366 -0.12187855 121.75666917 -0.12025452 120.13426208 C-0.12162918 119.08111816 -0.12300385 118.02797424 -0.12442017 116.94291687 C-0.12082489 115.77766983 -0.11722961 114.61242279 -0.11352539 113.41186523 C-0.11367142 112.19252289 -0.11381744 110.97318054 -0.1139679 109.71688843 C-0.11338893 106.36372489 -0.10835968 103.01062226 -0.10139394 99.65746951 C-0.09515983 96.15674438 -0.09455656 92.65601852 -0.09336853 89.1552887 C-0.09025538 82.52190344 -0.08204222 75.88853459 -0.07201904 69.25515658 C-0.06085739 61.70509793 -0.05534732 54.15503851 -0.05032361 46.60497367 C-0.03985959 31.06997294 -0.02226047 15.53498858 0 0 Z " fill="#2E2B2F" transform="translate(2468,1852)"/>
<path d="M0 0 C10.24615385 2.27692308 10.24615385 2.27692308 14.5 3.5625 C15.3353125 3.81128906 16.170625 4.06007813 17.03125 4.31640625 C19 5 19 5 20 6 C20.09603022 7.6195634 20.12187855 9.24333083 20.12025452 10.86573792 C20.12162918 11.91888184 20.12300385 12.97202576 20.12442017 14.05708313 C20.12082489 15.22233017 20.11722961 16.38757721 20.11352539 17.58813477 C20.11367142 18.80747711 20.11381744 20.02681946 20.1139679 21.28311157 C20.11338893 24.63627511 20.10835968 27.98937774 20.10139394 31.34253049 C20.09515983 34.84325562 20.09455656 38.34398148 20.09336853 41.8447113 C20.09025538 48.47809656 20.08204222 55.11146541 20.07201904 61.74484342 C20.06085739 69.29490207 20.05534732 76.84496149 20.05032361 84.39502633 C20.03985959 99.93002706 20.02226047 115.46501142 20 131 C12.94150646 128.80145283 6.84048042 126.10930928 0 123 C0 82.41 0 41.82 0 0 Z " fill="#373337" transform="translate(2583,1892)"/>
<path d="M0 0 C6.85231701 1.71307925 13.38651348 4.51994255 20 7 C20 46.6 20 86.2 20 127 C14 127 14 127 0 122 C0 81.74 0 41.48 0 0 Z " fill="#312E32" transform="translate(2524,1873)"/>
<path d="M0 0 C42.9 0 85.8 0 130 0 C129.67 0.66 129.34 1.32 129 2 C128.38377274 1.99539104 127.76754547 1.99078207 127.13264465 1.98603344 C112.11688033 1.87546171 97.10124148 1.7927988 82.08517456 1.74093914 C74.82339834 1.71519151 67.56189439 1.68010757 60.30029297 1.62280273 C53.96875857 1.57286146 47.63742143 1.54068396 41.30569553 1.52955753 C37.95494381 1.52305642 34.60520161 1.50520387 31.25454712 1.47134972 C27.5079008 1.43500331 23.76241952 1.43005734 20.015625 1.43237305 C18.91294785 1.41439667 17.81027069 1.39642029 16.67417908 1.37789917 C9.77076417 1.42400638 5.40619385 2.62726211 0 7 C0 4.69 0 2.38 0 0 Z " fill="#0D090D" transform="translate(1345,1825)"/>
<path d="M0 0 C40.92 0 81.84 0 124 0 C122.74458443 2.51083114 121.49936512 2.87125446 119 4 C119 3.01 119 2.02 119 1 C118.39532898 1.07064667 117.79065796 1.14129333 117.16766357 1.21408081 C106.28103461 2.30972926 95.38285073 2.14475208 84.453125 2.1328125 C82.26983632 2.13348727 80.08654771 2.13445874 77.90325928 2.13571167 C73.34777098 2.13717923 68.7923024 2.13506365 64.23681641 2.13037109 C58.41096054 2.12466077 52.58515062 2.12796704 46.75929642 2.13394356 C42.25878556 2.13756305 37.75828554 2.13640443 33.25777435 2.13381577 C31.1096674 2.13315105 28.96155946 2.13395895 26.81345367 2.13629532 C23.81083071 2.13884617 20.80828155 2.13494764 17.80566406 2.12939453 C16.92755569 2.13141876 16.04944733 2.13344299 15.14472961 2.13552856 C10.00858232 2.11800855 5.08421878 1.73837753 0 1 C0 0.67 0 0.34 0 0 Z " fill="#141114" transform="translate(2873,2361)"/>
<path d="M0 0 C0.33 0 0.66 0 1 0 C1 23.76 1 47.52 1 72 C0.01 71.67 -0.98 71.34 -2 71 C-2.02312851 63.45501767 -2.04091769 55.91003899 -2.05181217 48.36502934 C-2.05703989 44.86191115 -2.0641355 41.35881715 -2.07543945 37.85571289 C-2.08834206 33.83219159 -2.09322912 29.80869586 -2.09765625 25.78515625 C-2.10539818 23.88987938 -2.10539818 23.88987938 -2.11329651 21.95631409 C-2.11337204 20.795186 -2.11344757 19.63405792 -2.11352539 18.43774414 C-2.11685631 16.8955294 -2.11685631 16.8955294 -2.12025452 15.32215881 C-2 13 -2 13 -1 12 C-0.76572222 9.98405418 -0.58663876 7.961526 -0.4375 5.9375 C-0.35371094 4.83277344 -0.26992187 3.72804688 -0.18359375 2.58984375 C-0.12300781 1.73519531 -0.06242187 0.88054687 0 0 Z " fill="#6A686D" transform="translate(2602,1951)"/>
<path d="M0 0 C17.0457278 -0.04667382 34.09143572 -0.08196613 51.13721275 -0.10362434 C59.05145781 -0.1139469 66.96566321 -0.12802586 74.87988281 -0.15087891 C81.77609076 -0.17078289 88.67227001 -0.18370931 95.56850588 -0.18817699 C99.22166473 -0.19078946 102.87474142 -0.19695007 106.52787399 -0.21146011 C110.60113962 -0.2275084 114.67426148 -0.22798162 118.74755859 -0.22705078 C119.96531479 -0.23424133 121.18307098 -0.24143188 122.43772888 -0.24884033 C123.54273239 -0.246091 124.6477359 -0.24334167 125.78622437 -0.24050903 C126.75041983 -0.24235262 127.71461529 -0.24419621 128.70802879 -0.24609566 C131 0 131 0 133 2 C130 3 130 3 127 2 C125.3489982 1.91216954 123.6946215 1.88235134 122.04129028 1.88647461 C121.0178653 1.8865451 119.99444031 1.8866156 118.94000244 1.88668823 C117.81785339 1.89185455 116.69570435 1.89702087 115.53955078 1.90234375 C114.35720856 1.90380402 113.17486633 1.90526428 111.95669556 1.9067688 C108.71281904 1.9115752 105.46898776 1.92075629 102.22512674 1.93153763 C98.82952332 1.94151187 95.43391443 1.94503194 92.03829956 1.94897461 C82.66645237 1.96102257 73.29463359 1.98305991 63.92280579 2.00520325 C55.33869089 2.02538856 46.75458564 2.04346027 38.170452 2.05341816 C34.7905712 2.05758061 31.41072229 2.06390944 28.03085709 2.07516479 C24.26031113 2.08710816 20.48979925 2.09301314 16.71923828 2.09765625 C15.0420874 2.10540573 15.0420874 2.10540573 13.33105469 2.11331177 C12.30199005 2.11338226 11.27292542 2.11345276 10.212677 2.11352539 C9.32151247 2.115746 8.43034794 2.11796661 7.51217842 2.12025452 C4.92004448 1.99617264 2.52777033 1.57305923 0 1 C0 0.67 0 0.34 0 0 Z " fill="#141216" transform="translate(1597,2361)"/>
<path d="M0 0 C0.8971875 0.309375 0.8971875 0.309375 1.8125 0.625 C0.8225 1.285 -0.1675 1.945 -1.1875 2.625 C-1.1875 4.605 -1.1875 6.585 -1.1875 8.625 C13.6625 8.955 28.5125 9.285 43.8125 9.625 C43.8125 9.955 43.8125 10.285 43.8125 10.625 C23.6825 10.955 3.5525 11.285 -17.1875 11.625 C-15.061937 7.37387399 -14.20732937 6.71982352 -10.25 4.5 C-9.37472656 4.00242187 -8.49945312 3.50484375 -7.59765625 2.9921875 C-6.80230469 2.54101562 -6.00695313 2.08984375 -5.1875 1.625 C-2.1875 -0.375 -2.1875 -0.375 0 0 Z " fill="#1D191F" transform="translate(1168.1875,2252.375)"/>
<path d="M0 0 C7.59 0 15.18 0 23 0 C22.67 0.99 22.34 1.98 22 3 C20.19402344 2.96519531 20.19402344 2.96519531 18.3515625 2.9296875 C16.77604785 2.91093137 15.20052652 2.89273101 13.625 2.875 C12.8309375 2.85824219 12.036875 2.84148437 11.21875 2.82421875 C9.14507985 2.80664527 7.07116759 2.89664832 5 3 C4.34 3.66 3.68 4.32 3 5 C2.67 5 2.34 5 2 5 C2.00222061 5.85111359 2.00444122 6.70222717 2.00672913 7.57913208 C2.02679206 15.61227627 2.04200474 23.645412 2.05181217 31.67857552 C2.05702381 35.80818885 2.06409018 39.93778142 2.07543945 44.06738281 C2.0863295 48.0549833 2.09228979 52.04256386 2.09487724 56.03017807 C2.09672048 57.54915556 2.10031982 59.06813201 2.10573006 60.58710098 C2.11302172 62.71971213 2.11398752 64.85224161 2.11352539 66.98486328 C2.115746 68.1973172 2.11796661 69.40977112 2.12025452 70.65896606 C2.00500962 73.86081757 1.60473722 76.85726847 1 80 C0.67 80 0.34 80 0 80 C0 53.6 0 27.2 0 0 Z " fill="#1B1418" transform="translate(1547,1592)"/>
<path d="M0 0 C4.14897797 1.51882229 5.67491259 4.09888617 8 7.75 C8.66 8.77609375 9.32 9.8021875 10 10.859375 C10.66 11.89578125 11.32 12.9321875 12 14 C12.73734375 15.05960938 13.4746875 16.11921875 14.234375 17.2109375 C16.11244918 20.1776299 16.40354235 21.56989004 16 25 C15.67 23.68 15.34 22.36 15 21 C14.34 21 13.68 21 13 21 C12.7525 20.360625 12.505 19.72125 12.25 19.0625 C11.22075249 16.82698013 11.22075249 16.82698013 9.125 16.5 C8.42375 16.335 7.7225 16.17 7 16 C3.9252441 13.39111621 1.70182111 10.65891538 0 7 C-0.1875 3.1875 -0.1875 3.1875 0 0 Z " fill="#1E1C1C" transform="translate(2011,1454)"/>
<path d="M0 0 C2.0625 0.4375 2.0625 0.4375 4 1 C3.34 2.32 2.68 3.64 2 5 C8.6 5.33 15.2 5.66 22 6 C22 6.33 22 6.66 22 7 C11.11 7 0.22 7 -11 7 C-11 6.34 -11 5.68 -11 5 C-9.93458984 4.58427734 -9.93458984 4.58427734 -8.84765625 4.16015625 C-7.46900391 3.61681641 -7.46900391 3.61681641 -6.0625 3.0625 C-5.14597656 2.70285156 -4.22945312 2.34320312 -3.28515625 1.97265625 C-1.07581467 1.2003782 -1.07581467 1.2003782 0 0 Z " fill="#221E22" transform="translate(1371,2256)"/>
<path d="M0 0 C0.33 0 0.66 0 1 0 C1 18.15 1 36.3 1 55 C0.01 54.67 -0.98 54.34 -2 54 C-1.67 53.01 -1.34 52.02 -1 51 C-1.66 51 -2.32 51 -3 51 C-2.125 44.125 -2.125 44.125 -1 43 C-0.9241299 40.84889299 -0.91698382 38.69531555 -0.9375 36.54296875 C-0.94128662 35.88476639 -0.94507324 35.22656403 -0.94897461 34.54841614 C-0.96526049 31.73052225 -0.99289197 28.91277318 -1.02050781 26.0949707 C-1.09894934 17.34564433 -0.92711715 8.71345257 0 0 Z " fill="#110E10" transform="translate(1678,2208)"/>
<path d="M0 0 C1.39062337 0.00503143 2.78124852 0.0095914 4.171875 0.01367188 C7.53129705 0.02533653 10.89062419 0.04170386 14.25 0.0625 C8.64357393 3.29697658 2.98810016 3.16907161 -3.3359375 2.94140625 C-4.03772125 2.91779526 -4.739505 2.89418427 -5.46255493 2.86985779 C-7.68360886 2.79385196 -9.904257 2.70956073 -12.125 2.625 C-13.63930367 2.57171595 -15.1536266 2.51897609 -16.66796875 2.46679688 C-20.36222278 2.33832375 -24.05615988 2.20242299 -27.75 2.0625 C-27.75 1.7325 -27.75 1.4025 -27.75 1.0625 C-18.48655058 0.09400877 -9.30678381 -0.05940023 0 0 Z " fill="#1C181E" transform="translate(1963.75,2463.9375)"/>
<path d="M0 0 C1.11072876 0.09087891 1.11072876 0.09087891 2.24389648 0.18359375 C5.64147367 0.45945293 9.03947108 0.72976449 12.4375 1 C13.60216797 1.09539062 14.76683594 1.19078125 15.96679688 1.2890625 C22.33551102 1.79138362 28.61175303 2.1093176 35 2 C35.495 3.485 35.495 3.485 36 5 C36.99 5.33 37.98 5.66 39 6 C35.22910702 5.68821718 31.45829724 5.37543844 27.6875 5.0625 C26.63498047 4.97548828 25.58246094 4.88847656 24.49804688 4.79882812 C17.66231179 4.23093629 10.83010253 3.63205458 4 3 C4 2.34 4 1.68 4 1 C2.68 0.67 1.36 0.34 0 0 Z " fill="#3B3737" transform="translate(2265,1992)"/>
<path d="M0 0 C1.16097702 0.02009628 2.32195404 0.04019257 3.51811218 0.06089783 C4.77130753 0.08793289 6.02450287 0.11496796 7.31567383 0.14282227 C8.59879959 0.16643326 9.88192535 0.19004425 11.20393372 0.21437073 C14.61198971 0.27714219 18.01988956 0.3462283 21.42779541 0.41662598 C24.90662538 0.48737222 28.38556588 0.55215151 31.86450195 0.61743164 C38.68818979 0.74635446 45.51173126 0.88194802 52.33520508 1.02172852 C52.33520508 1.35172852 52.33520508 1.68172852 52.33520508 2.02172852 C32.20520508 2.35172852 12.07520508 2.68172852 -8.66479492 3.02172852 C-8.66479492 2.36172852 -8.66479492 1.70172852 -8.66479492 1.02172852 C-5.48125761 -0.03945059 -3.33937864 -0.06519394 0 0 Z " fill="#1D1718" transform="translate(1159.664794921875,2260.978271484375)"/>
<path d="M0 0 C1.64443486 1.40462144 3.28775592 2.81056545 4.92578125 4.22265625 C6.30949839 5.40832724 7.70283093 6.58286721 9.10546875 7.74609375 C13.20085509 11.19605335 16.29042527 14.37114318 19 19 C18.34 19.33 17.68 19.66 17 20 C16.278125 19.2575 15.55625 18.515 14.8125 17.75 C12.09288953 14.98732731 12.09288953 14.98732731 9.1875 12.8125 C8.465625 12.214375 7.74375 11.61625 7 11 C7 10.34 7 9.68 7 9 C6.401875 8.773125 5.80375 8.54625 5.1875 8.3125 C2.40651597 6.64390958 1.4358084 4.8716168 0 2 C0 1.34 0 0.68 0 0 Z " fill="#222021" transform="translate(2905,2232)"/>
<path d="M0 0 C-0.99 0 -1.98 0 -3 0 C-3.1546875 0.9590625 -3.1546875 0.9590625 -3.3125 1.9375 C-3.539375 2.618125 -3.76625 3.29875 -4 4 C-4.99 4.33 -5.98 4.66 -7 5 C-7.33 5.66 -7.66 6.32 -8 7 C-10.64 7 -13.28 7 -16 7 C-15.83203125 5.14453125 -15.83203125 5.14453125 -15 3 C-12.63671875 1.69921875 -12.63671875 1.69921875 -9.6875 0.6875 C-8.72199219 0.34074219 -7.75648437 -0.00601562 -6.76171875 -0.36328125 C-3.99028916 -1.00223885 -2.62899967 -0.96792149 0 0 Z " fill="#323237" transform="translate(1651,2025)"/>
<path d="M0 0 C14.85 0 29.7 0 45 0 C43.74458443 2.51083114 42.49936512 2.87125446 40 4 C40 3.01 40 2.02 40 1 C39.30487305 1.07726318 38.60974609 1.15452637 37.89355469 1.23413086 C29.61911019 2.05056266 21.5475688 1.93926852 13.25 1.5625 C11.96867187 1.51029297 10.68734375 1.45808594 9.3671875 1.40429688 C6.24445235 1.27612491 3.12216634 1.14124696 0 1 C0 0.67 0 0.34 0 0 Z " fill="#100A0E" transform="translate(2952,2361)"/>
<path d="M0 0 C3 1.5 3 1.5 6 3 C6 3.99 6 4.98 6 6 C-4.23 6 -14.46 6 -25 6 C-25 5.67 -25 5.34 -25 5 C-17.08 4.67 -9.16 4.34 -1 4 C-0.67 2.68 -0.34 1.36 0 0 Z " fill="#110E10" transform="translate(2929,2257)"/>
<path d="M0 0 C0.33 0 0.66 0 1 0 C1.33 14.52 1.66 29.04 2 44 C1.01 43.67 0.02 43.34 -1 43 C-0.67 28.81 -0.34 14.62 0 0 Z " fill="#626064" transform="translate(2601,1979)"/>
<path d="M0 0 C2.49153377 3.73730065 2.41025455 6.67654816 2 11 C1.47406064 13.4120667 0.78264271 15.65207188 0 18 C0.66 18.33 1.32 18.66 2 19 C1.34 20.98 0.68 22.96 0 25 C-0.33 25 -0.66 25 -1 25 C-1.02900455 21.3958502 -1.04680018 17.79173038 -1.0625 14.1875 C-1.07087891 13.16333984 -1.07925781 12.13917969 -1.08789062 11.08398438 C-1.09111328 10.10107422 -1.09433594 9.11816406 -1.09765625 8.10546875 C-1.10289307 7.19949951 -1.10812988 6.29353027 -1.11352539 5.36010742 C-1 3 -1 3 0 0 Z " fill="#282020" transform="translate(1757,1357)"/>
<path d="M0 0 C1.14926266 0.95421808 2.29430541 1.91352045 3.4375 2.875 C4.07558594 3.40867187 4.71367187 3.94234375 5.37109375 4.4921875 C7 6 7 6 8 8 C7.01 8.99 6.02 9.98 5 11 C4.67 10.34 4.34 9.68 4 9 C3.01 10.485 3.01 10.485 2 12 C0.40861915 7.82262526 -0.21278058 4.46839215 0 0 Z " fill="#211D1E" transform="translate(2068,1538)"/>
<path d="M0 0 C0.33 0.66 0.66 1.32 1 2 C0.34 2 -0.32 2 -1 2 C-0.67 4.31 -0.34 6.62 0 9 C-2.97 8.505 -2.97 8.505 -6 8 C-6 7.34 -6 6.68 -6 6 C-6.99 5.67 -7.98 5.34 -9 5 C-6.03 3.35 -3.06 1.7 0 0 Z " fill="#353336" transform="translate(1389,2246)"/>
<path d="M0 0 C-3.05700613 3.05700613 -6.73435613 3.2900365 -10.875 4.1875 C-11.69097656 4.37763672 -12.50695313 4.56777344 -13.34765625 4.76367188 C-14.13785156 4.93833984 -14.92804688 5.11300781 -15.7421875 5.29296875 C-16.82282471 5.53309692 -16.82282471 5.53309692 -17.92529297 5.77807617 C-20.20524034 6.02195381 -21.82583712 5.68237244 -24 5 C-19.84962966 3.56020335 -15.71490182 2.37491211 -11.4375 1.375 C-9.79587891 0.98441406 -9.79587891 0.98441406 -8.12109375 0.5859375 C-5.31567677 0.05926347 -2.84237891 -0.11644755 0 0 Z " fill="#171717" transform="translate(1786,1964)"/>
<path d="M0 0 C2.88437779 1.29299694 4.87219421 2.65941363 7 5 C3.375 8 3.375 8 0 8 C0 5.36 0 2.72 0 0 Z " fill="#2E272B" transform="translate(2296,1756)"/>
<path d="M0 0 C8.91 0 17.82 0 27 0 C27 0.33 27 0.66 27 1 C25.77023438 1.09087891 25.77023438 1.09087891 24.515625 1.18359375 C22.89914063 1.30927734 22.89914063 1.30927734 21.25 1.4375 C20.18265625 1.51871094 19.1153125 1.59992187 18.015625 1.68359375 C15.09107621 1.91614459 15.09107621 1.91614459 12.671875 2.59765625 C12.12015625 2.73042969 11.5684375 2.86320312 11 3 C10.67 2.67 10.34 2.34 10 2 C8.31816052 1.76712992 6.6287584 1.58735834 4.9375 1.4375 C4.01839844 1.35371094 3.09929688 1.26992187 2.15234375 1.18359375 C1.08693359 1.09271484 1.08693359 1.09271484 0 1 C0 0.67 0 0.34 0 0 Z " fill="#1E1B1F" transform="translate(2648,2457)"/>
<path d="M0 0 C0.99 0.33 1.98 0.66 3 1 C-0.29654383 4.64354845 -3.31237856 6.90447426 -8.3125 7.1875 C-9.199375 7.125625 -10.08625 7.06375 -11 7 C-7.52671426 4.22137141 -3.9587532 2.01536527 0 0 Z " fill="#363639" transform="translate(1423,2227)"/>
<path d="M0 0 C0 0.66 0 1.32 0 2 C1.051875 1.814375 2.10375 1.62875 3.1875 1.4375 C6.57119882 1.04920669 8.76425888 1.11752515 12 2 C12 2.66 12 3.32 12 4 C9.79142945 3.85780436 7.58315013 3.71108153 5.375 3.5625 C4.14523438 3.48128906 2.91546875 3.40007812 1.6484375 3.31640625 C-1.61532388 3.03336056 -4.77943859 2.58961047 -8 2 C-8 1.67 -8 1.34 -8 1 C-2.25 0 -2.25 0 0 0 Z " fill="#4D4A4A" transform="translate(2330,1999)"/>
<path d="M0 0 C0.33 0 0.66 0 1 0 C1 6.6 1 13.2 1 20 C-0.94699318 16.10601365 -1.12993916 14.25131712 -0.99609375 10.03125 C-0.9394552 7.76081984 -0.9394552 7.76081984 -1.625 4.625 C-1.74875 3.75875 -1.8725 2.8925 -2 2 C-1.34 1.34 -0.68 0.68 0 0 Z " fill="#363333" transform="translate(2853,2402)"/>
<path d="M0 0 C0 0.66 0 1.32 0 2 C-1.74294678 2.86846831 -3.49468663 3.71930627 -5.25 4.5625 C-6.22453125 5.03816406 -7.1990625 5.51382813 -8.203125 6.00390625 C-11.09856297 7.03510273 -12.19966161 7.11346788 -15 6 C-14.34 6 -13.68 6 -13 6 C-13 5.34 -13 4.68 -13 4 C-12.484375 3.896875 -11.96875 3.79375 -11.4375 3.6875 C-8.75442764 2.98848555 -8.75442764 2.98848555 -5.375 1.4375 C-2 0 -2 0 0 0 Z " fill="#212120" transform="translate(1520,2153)"/>
<path d="M0 0 C-0.99 0 -1.98 0 -3 0 C-3.33 1.32 -3.66 2.64 -4 4 C-6.31 4 -8.62 4 -11 4 C-11.33 3.34 -11.66 2.68 -12 2 C-10.75579353 1.4654744 -9.50429064 0.94791389 -8.25 0.4375 C-7.55390625 0.14746094 -6.8578125 -0.14257812 -6.140625 -0.44140625 C-3.69987216 -1.07831803 -2.3596345 -0.80248831 0 0 Z " fill="#504F58" transform="translate(1651,2025)"/>
<path d="M0 0 C0 0.66 0 1.32 0 2 C-5.75 5 -5.75 5 -8 5 C-8 4.34 -8 3.68 -8 3 C-8.66 2.67 -9.32 2.34 -10 2 C-6.49223216 0.39644899 -3.85645121 -0.22036864 0 0 Z " fill="#484750" transform="translate(1630,2031)"/>
<path d="M0 0 C0.99 0.33 1.98 0.66 3 1 C3.33 2.65 3.66 4.3 4 6 C1.69 6 -0.62 6 -3 6 C-2.01 4.02 -1.02 2.04 0 0 Z " fill="#1C1B1B" transform="translate(2057,2577)"/>
<path d="M0 0 C0 0.66 0 1.32 0 2 C-1.40751221 2.86916887 -2.8264521 3.71985149 -4.25 4.5625 C-5.03890625 5.03816406 -5.8278125 5.51382813 -6.640625 6.00390625 C-9.30844625 7.13022151 -10.34501768 7.0169313 -13 6 C-3.28571429 0 -3.28571429 0 0 0 Z " fill="#1F1F1F" transform="translate(1408,2209)"/>
<path d="M0 0 C5.94 0.99 5.94 0.99 12 2 C9.377486 3.74834267 8.00515522 4.51529754 5 5 C4.34 4.67 3.68 4.34 3 4 C3 3.34 3 2.68 3 2 C2.01 2 1.02 2 0 2 C0 1.34 0 0.68 0 0 Z " fill="#2E2D2E" transform="translate(1730,2362)"/>
<path d="M0 0 C0 0.66 0 1.32 0 2 C-1.95927063 3.7143618 -3.95880212 5.38405168 -6 7 C-6.99 6.34 -7.98 5.68 -9 5 C-4.16129032 0 -4.16129032 0 0 0 Z " fill="#252427" transform="translate(1220,2220)"/>
<path d="M0 0 C0.99 0.33 1.98 0.66 3 1 C1.42466914 1.86883706 -0.16064509 2.71959068 -1.75 3.5625 C-2.63171875 4.03816406 -3.5134375 4.51382813 -4.421875 5.00390625 C-7.20701188 6.07998186 -8.26980214 6.06528748 -11 5 C-10.37351562 4.72285156 -9.74703125 4.44570312 -9.1015625 4.16015625 C-8.28429688 3.79792969 -7.46703125 3.43570313 -6.625 3.0625 C-5.81289062 2.70285156 -5.00078125 2.34320312 -4.1640625 1.97265625 C-2.76316215 1.3430097 -1.37374716 0.68687358 0 0 Z " fill="#232322" transform="translate(1618,2109)"/>
<path d="M0 0 C3.16115776 1.36983503 3.9927092 1.9890638 6 5 C6 5.99 6 6.98 6 8 C4.35 7.67 2.7 7.34 1 7 C1.020625 6.21625 1.04125 5.4325 1.0625 4.625 C1.18684063 2.01885039 1.18684063 2.01885039 0 0 Z " fill="#1F1E1F" transform="translate(1425,2429)"/>
<path d="M0 0 C0.598125 0.20625 1.19625 0.4125 1.8125 0.625 C0.8225 1.285 -0.1675 1.945 -1.1875 2.625 C-1.91715366 5.18782742 -1.91715366 5.18782742 -2.1875 7.625 C-3.1775 7.295 -4.1675 6.965 -5.1875 6.625 C-5.375 4.25 -5.375 4.25 -5.1875 1.625 C-2.1875 -0.375 -2.1875 -0.375 0 0 Z " fill="#222025" transform="translate(1168.1875,2252.375)"/>
<path d="M0 0 C1.17539996 0.92652701 2.34010577 1.86663387 3.5 2.8125 C4.1496875 3.33457031 4.799375 3.85664063 5.46875 4.39453125 C7 6 7 6 7 9 C3.17475764 7.549046 1.80909034 5.61818068 0 2 C0 1.34 0 0.68 0 0 Z " fill="#121111" transform="translate(2905,2232)"/>
<path d="M0 0 C3.34373475 0.55728913 6.03312999 1.35173889 9 3 C9 4.32 9 5.64 9 7 C5.18315774 5.44499019 2.80804268 2.96404505 0 0 Z " fill="#403C3C" transform="translate(2730,2174)"/>
<path d="M0 0 C2.95662966 0.22743305 4.55033688 0.61235938 6.8125 2.5625 C7.204375 3.036875 7.59625 3.51125 8 4 C6 5 6 5 4.0546875 4.44140625 C3.33539062 4.15136719 2.61609375 3.86132812 1.875 3.5625 C1.15054688 3.27503906 0.42609375 2.98757813 -0.3203125 2.69140625 C-1.15175781 2.34916016 -1.15175781 2.34916016 -2 2 C-1.34 1.34 -0.68 0.68 0 0 Z " fill="#4B4645" transform="translate(2499,2042)"/>
<path d="M0 0 C3.45925163 1.2491742 6.14693203 2.67527795 9 5 C8.67 5.99 8.34 6.98 8 8 C6.66372225 6.85760183 5.33104612 5.71098945 4 4.5625 C3.2575 3.92441406 2.515 3.28632813 1.75 2.62890625 C1.1725 2.09136719 0.595 1.55382813 0 1 C0 0.67 0 0.34 0 0 Z " fill="#1A181B" transform="translate(1996,2405)"/>
<path d="M0 0 C1.32 0.66 2.64 1.32 4 2 C3.01 2.495 3.01 2.495 2 3 C1.67 3.99 1.34 4.98 1 6 C0.34 5.34 -0.32 4.68 -1 4 C-2.31747324 3.30251417 -3.64914193 2.63040043 -5 2 C-4.360625 1.855625 -3.72125 1.71125 -3.0625 1.5625 C-1.02454854 1.18992819 -1.02454854 1.18992819 0 0 Z " fill="#232224" transform="translate(2887,2217)"/>
<path d="M0 0 C1.21236328 0.01353516 1.21236328 0.01353516 2.44921875 0.02734375 C3.37154297 0.04474609 3.37154297 0.04474609 4.3125 0.0625 C3.9825 0.7225 3.6525 1.3825 3.3125 2.0625 C0.80859375 2.4765625 0.80859375 2.4765625 -2.25 2.6875 C-3.26191406 2.76226563 -4.27382812 2.83703125 -5.31640625 2.9140625 C-6.09886719 2.96304688 -6.88132812 3.01203125 -7.6875 3.0625 C-7.6875 2.4025 -7.6875 1.7425 -7.6875 1.0625 C-4.80538698 0.10179566 -2.98899956 -0.04331883 0 0 Z " fill="#110D11" transform="translate(1158.6875,2260.9375)"/>
<path d="M0 0 C2.91517292 1.07401108 4.77810176 1.77810176 7 4 C6.67 4.66 6.34 5.32 6 6 C3 6 3 6 1.3125 4.6875 C0 3 0 3 0 0 Z " fill="#242325" transform="translate(2785,2141)"/>
<path d="M0 0 C0.99 0.495 0.99 0.495 2 1 C1.95875 1.7425 1.9175 2.485 1.875 3.25 C2.00398134 6.08758952 2.57051222 7.58773938 4 10 C2.68 10 1.36 10 0 10 C0 6.7 0 3.4 0 0 Z " fill="#242023" transform="translate(1344,2114)"/>
<path d="M0 0 C0.99 0 1.98 0 3 0 C3 2.64 3 5.28 3 8 C2.34 6.68 1.68 5.36 1 4 C0.01 4 -0.98 4 -2 4 C-1.34 2.68 -0.68 1.36 0 0 Z " fill="#191618" transform="translate(1677,2112)"/>
<path d="M0 0 C0.66 0.66 1.32 1.32 2 2 C-3.5 5.125 -3.5 5.125 -8 4 C-5.36 2.68 -2.72 1.36 0 0 Z " fill="#232323" transform="translate(1662,2091)"/>
<path d="M0 0 C0 0.99 0 1.98 0 3 C-6.625 4.25 -6.625 4.25 -10 2 C-8.7090864 1.66376204 -7.41723903 1.33110751 -6.125 1 C-5.40570312 0.814375 -4.68640625 0.62875 -3.9453125 0.4375 C-2 0 -2 0 0 0 Z " fill="#141012" transform="translate(1891,2048)"/>
<path d="M0 0 C0.99 0 1.98 0 3 0 C3 0.99 3 1.98 3 3 C0.75 4.125 0.75 4.125 -2 5 C-4.3125 4.125 -4.3125 4.125 -6 3 C-5.195625 2.690625 -4.39125 2.38125 -3.5625 2.0625 C-1.10919595 1.23664655 -1.10919595 1.23664655 0 0 Z " fill="#3A383A" transform="translate(1993,2456)"/>
<path d="M0 0 C-0.639375 0.309375 -1.27875 0.61875 -1.9375 0.9375 C-3.93610821 1.8345163 -3.93610821 1.8345163 -5 3 C-6.66617115 3.04063832 -8.33388095 3.042721 -10 3 C-10 2.34 -10 1.68 -10 1 C-6.78548731 -0.60725635 -3.56387464 -0.05748185 0 0 Z " fill="#424044" transform="translate(2634,2355)"/>
<path d="M0 0 C2.375 0.25 2.375 0.25 5 1 C6.3125 3.0625 6.3125 3.0625 7 5 C6.01 5 5.02 5 4 5 C1.8125 2.5 1.8125 2.5 0 0 Z " fill="#3A3637" transform="translate(2793,2231)"/>
<path d="M0 0 C0.86625 0.3403125 0.86625 0.3403125 1.75 0.6875 C0.5625 2.25 0.5625 2.25 -1.25 3.6875 C-3.9375 3.375 -3.9375 3.375 -6.25 2.6875 C-2.80384615 -0.38942308 -2.80384615 -0.38942308 0 0 Z M-5.25 3.6875 C-4.92 4.3475 -4.59 5.0075 -4.25 5.6875 C-4.91 5.3575 -5.57 5.0275 -6.25 4.6875 C-5.92 4.3575 -5.59 4.0275 -5.25 3.6875 Z " fill="#252527" transform="translate(1239.25,2208.3125)"/>
<path d="M0 0 C1.65 0.33 3.3 0.66 5 1 C2.64722731 3.72426311 0.37503669 4.8141763 -3 6 C-3.33 5.34 -3.66 4.68 -4 4 C-3.01 4 -2.02 4 -1 4 C-0.67 2.68 -0.34 1.36 0 0 Z " fill="#181818" transform="translate(1413,2203)"/>
<path d="M0 0 C0.66 0.33 1.32 0.66 2 1 C0.375 3 0.375 3 -2 5 C-5.25 5.25 -5.25 5.25 -8 5 C-5.56159764 2.56159764 -3.14759102 1.37707107 0 0 Z " fill="#343238" transform="translate(1402,2120)"/>
<path d="M0 0 C-0.33 0.66 -0.66 1.32 -1 2 C-3.4375 2.75 -3.4375 2.75 -6 3 C-6.66 2.34 -7.32 1.68 -8 1 C-4.93251126 -0.86240388 -3.40254489 -1.2151946 0 0 Z " fill="#312F37" transform="translate(1461,2096)"/>
<path d="M0 0 C-2.97 1.32 -5.94 2.64 -9 4 C-9.33 3.01 -9.66 2.02 -10 1 C-5.8922935 -0.58706842 -4.40767604 -1.10191901 0 0 Z " fill="#3C3B40" transform="translate(1831,2064)"/>
<path d="M0 0 C0.99 0.33 1.98 0.66 3 1 C3 1.66 3 2.32 3 3 C3.99 3 4.98 3 6 3 C6.33 3.99 6.66 4.98 7 6 C3.75728494 5.4409112 2.06942576 4.5867822 0 2 C0 1.34 0 0.68 0 0 Z " fill="#1A1619" transform="translate(1950,2514)"/>
<path d="M0 0 C0.66 0 1.32 0 2 0 C1.67 2.64 1.34 5.28 1 8 C0.01 7.34 -0.98 6.68 -2 6 C-1.34 4.02 -0.68 2.04 0 0 Z " fill="#383737" transform="translate(2052,2434)"/>
<path d="M0 0 C1.37562854 1.28965176 2.70766393 2.62689293 4 4 C4 4.66 4 5.32 4 6 C2.02 5.34 0.04 4.68 -2 4 C-2 3.34 -2 2.68 -2 2 C-1.34 2 -0.68 2 0 2 C0 1.34 0 0.68 0 0 Z " fill="#363433" transform="translate(2693,2403)"/>
<path d="M0 0 C-0.8125 1.9375 -0.8125 1.9375 -2 4 C-2.99 4.33 -3.98 4.66 -5 5 C-5.66 4.34 -6.32 3.68 -7 3 C-2.25 0 -2.25 0 0 0 Z " fill="#323134" transform="translate(1196,2234)"/>
<path d="M0 0 C3.36720387 1.39332574 4.9859524 2.9789286 7 6 C3.75728494 5.4409112 2.06942576 4.5867822 0 2 C0 1.34 0 0.68 0 0 Z " fill="#242022" transform="translate(2749,2189)"/>
<path d="M0 0 C0.86625 0.3403125 0.86625 0.3403125 1.75 0.6875 C0 2.25 0 2.25 -2.25 3.6875 C-4.5 3.375 -4.5 3.375 -6.25 2.6875 C-2.80384615 -0.38942308 -2.80384615 -0.38942308 0 0 Z " fill="#212125" transform="translate(1280.25,2184.3125)"/>
<path d="M0 0 C0.33 0.66 0.66 1.32 1 2 C0 4 0 4 -1.9375 4.75 C-2.618125 4.8325 -3.29875 4.915 -4 5 C-4.66 4.34 -5.32 3.68 -6 3 C-4.02 2.01 -2.04 1.02 0 0 Z M-6 5 C-4 6 -4 6 -4 6 Z " fill="#323235" transform="translate(1311,2166)"/>
<path d="M0 0 C-1 3 -1 3 -2.875 4.1875 C-5 5 -5 5 -8 5 C-8 4.34 -8 3.68 -8 3 C-2.25 0 -2.25 0 0 0 Z " fill="#1C1C1C" transform="translate(1497,2163)"/>
<path d="M0 0 C0.99 0 1.98 0 3 0 C3 0.66 3 1.32 3 2 C4.65 2.33 6.3 2.66 8 3 C7.67 3.66 7.34 4.32 7 5 C2.25 3.125 2.25 3.125 0 2 C0 1.34 0 0.68 0 0 Z " fill="#333234" transform="translate(2646,2113)"/>
<path d="M0 0 C0.99 0.33 1.98 0.66 3 1 C0.64031256 3.09749995 -0.54616994 3.96905704 -3.75 4.1875 C-4.86375 4.0946875 -4.86375 4.0946875 -6 4 C-4.03617993 2.49440461 -2.21736634 1.10868317 0 0 Z " fill="#3D3B40" transform="translate(1419,2112)"/>
<path d="M0 0 C0 0.33 0 0.66 0 1 C-3.3 1.33 -6.6 1.66 -10 2 C-10 1.34 -10 0.68 -10 0 C-6.7169902 -1.6415049 -3.57454967 -0.51888624 0 0 Z " fill="#434343" transform="translate(1815,1959)"/>
<path d="M0 0 C4.75 1.875 4.75 1.875 7 3 C7 3.99 7 4.98 7 6 C6.01 5.67 5.02 5.34 4 5 C4 4.34 4 3.68 4 3 C3.01 3 2.02 3 1 3 C0.67 2.01 0.34 1.02 0 0 Z " fill="#232124" transform="translate(2308,1765)"/>
</svg>
